<svg width="128" height="128" viewBox="0 0 128 128" fill="none" xmlns="http://www.w3.org/2000/svg">
<rect width="128" height="128" rx="64" fill="white"/>
<path d="M92.017 77.5227C96.1453 79.4563 99.7044 82.0217 101.474 86.4476C102.171 88.1909 102.141 90.015 101.586 91.8244C101.027 93.6481 99.9796 95.1663 98.6673 96.5015C95.7791 99.4402 92.2242 101.314 88.4416 102.783C82.5242 105.08 76.3602 106.242 70.0519 106.734C64.4076 107.173 58.7743 107.09 53.1625 106.355C46.1098 105.432 39.2705 103.765 33.0422 100.14C30.9124 98.9005 28.9733 97.4181 27.3987 95.4878C24.1231 91.4722 24.2043 86.7333 27.6299 82.8329C29.6963 80.4802 32.2197 78.7541 35.1012 77.443C35.2392 77.5848 35.2888 77.6803 35.3085 77.8282C34.9505 78.0743 34.6222 78.268 34.2487 78.4883C34.4659 78.8176 34.6535 79.1021 34.792 79.3121C37.0778 78.1625 39.2907 77.0496 41.7748 75.8002C41.3636 75.7043 41.1278 75.5823 40.9144 75.6136C40.4802 75.6772 40.058 75.8235 39.6247 75.8603C39.6087 75.6844 39.5989 75.5839 39.589 75.4834C40.9115 75.0339 42.2288 74.5675 43.5623 74.1536C43.7534 74.0943 44.0947 74.2202 44.2417 74.3778C44.6444 74.8098 44.9806 75.3043 45.3772 75.818C43.6064 76.4183 41.8469 76.8806 40.2035 77.6076C38.3587 78.4237 36.604 79.4524 34.8423 80.4462C34.3057 80.7488 33.8464 81.2118 33.4016 81.6522C30.5113 84.5136 30.6475 87.8523 33.7164 90.5332C36.4614 92.9312 39.7416 94.2641 43.1496 95.3151C48.2556 96.8898 53.5081 97.6094 58.8298 97.9315C63.945 98.241 69.0391 98.047 74.1099 97.3666C79.8425 96.5975 85.4651 95.3788 90.548 92.4421C91.7475 91.749 92.9201 90.8886 93.8518 89.8713C96.4291 87.0574 96.235 84.152 93.4484 81.5238C91.523 79.7078 89.2154 78.5212 86.7763 77.5924C85.0884 76.9497 83.358 76.4196 81.5827 75.8175C81.9721 75.3163 82.3039 74.8168 82.715 74.3953C82.8798 74.2263 83.2459 74.1185 83.4739 74.1742C84.1364 74.3362 84.7753 74.595 85.4827 74.9078C85.5394 75.1183 85.5369 75.2368 85.4727 75.3634C85.2226 75.4223 85.0343 75.473 84.846 75.5237C84.9384 75.6667 84.9977 75.8811 85.1282 75.9422C87.2878 76.9538 89.4564 77.9461 91.7416 78.9974C91.8126 78.6908 91.8988 78.3195 91.9887 77.8771C92.0007 77.7116 92.0089 77.6172 92.017 77.5227ZM69.5224 101.167C68.4287 101.241 67.335 101.315 66.1445 101.396C66.1838 102.279 66.2211 103.12 66.262 104.039C68.9412 103.809 71.4798 103.59 74.047 103.369C73.9073 102.387 73.795 101.597 73.6831 100.809C72.2954 100.928 70.9918 101.039 69.5224 101.167ZM61.3592 103.363C61.3592 102.716 61.3592 102.069 61.3592 101.426C58.8558 101.254 56.4043 101.085 53.8822 100.912C53.7852 101.743 53.6906 102.554 53.5817 103.488C56.0699 103.659 58.4407 103.832 60.8139 103.963C60.9863 103.973 61.1751 103.683 61.3592 103.363ZM83.5642 98.7373C81.8467 99.18 80.1291 99.6227 78.3608 100.078C78.5457 100.905 78.7171 101.671 78.9159 102.56C81.4874 101.814 83.9306 101.105 86.4364 100.377C86.1224 99.5126 85.871 98.8204 85.6063 98.0914C84.941 98.2991 84.3202 98.493 83.5642 98.7373ZM41.6053 99.2727C41.472 99.666 41.3386 100.059 41.1509 100.613C43.6957 101.309 46.1735 101.988 48.7223 102.685C48.8955 101.74 49.038 100.961 49.1758 100.208C46.7019 99.5804 44.3244 98.9768 41.9316 98.3694C41.8296 98.6372 41.7342 98.8877 41.6053 99.2727ZM31.4715 95.2025C33.0316 96.5408 34.7284 97.6607 36.6283 98.5621C36.9634 97.8428 37.2576 97.2114 37.4797 96.7348C35.3927 95.3349 33.4058 94.0022 31.3858 92.6472C31.0169 92.9993 30.5737 93.4224 30.1178 93.8576C30.5762 94.3151 30.9775 94.7156 31.4715 95.2025ZM96.8535 93.8557C96.9825 93.6769 97.1115 93.4981 97.2582 93.2948C96.7427 92.8675 96.2898 92.492 95.985 92.2392C93.9412 93.6909 91.9936 95.0743 90.0286 96.47C90.31 97.0193 90.62 97.6245 90.9468 98.2625C93.1489 97.1148 95.113 95.7451 96.8535 93.8557ZM30.8932 82.0597C30.6994 81.882 30.5056 81.7043 30.2669 81.4854C28.2662 83.6984 27.0412 86.0946 27.6259 89.2098C28.2386 89.0678 28.7764 88.9432 29.3492 88.8104C28.9169 86.5586 29.5757 84.6419 30.9492 82.9332C31.1692 82.6595 31.3958 82.4208 30.8932 82.0597ZM97.2464 85.0191C97.4676 86.0867 97.6887 87.1542 97.9278 88.3087C98.3566 88.3596 98.8976 88.4239 99.4955 88.495C99.67 85.3592 98.3168 83.0374 96.2012 80.9945C95.8495 81.384 95.5564 81.7087 95.3514 81.9356C96.0059 82.9758 96.6068 83.9308 97.2464 85.0191Z" fill="#3A3A3A"/>
<path d="M36.8268 37.6983C41.6622 28.2829 49.2448 22.6649 59.6151 21.2717C75.7276 19.1072 89.7208 30.2299 92.524 45.239C93.6594 51.3184 92.3485 56.8075 89.5249 62.1164C86.3561 68.0741 82.3152 73.4078 77.9677 78.5194C73.6189 83.6326 68.9743 88.4664 64.0667 93.0433C63.8738 93.2231 63.6682 93.3893 63.399 93.6219C61.9349 92.214 60.474 90.8514 59.0594 89.4418C53.0317 83.4349 47.3312 77.1398 42.3731 70.1973C39.9172 66.7584 37.7524 63.1517 35.9806 59.3018C33.0815 53.0027 33.4374 46.6793 35.7136 40.3228C36.026 39.4505 36.4328 38.6123 36.8268 37.6983ZM57.0413 42.4142C56.4407 43.035 55.7754 43.6054 55.2504 44.2851C52.6162 47.6954 52.516 52.5471 54.9624 56.1338C57.5004 59.8546 62.1289 61.5005 66.3902 60.1975C70.57 58.9194 73.6092 55.02 73.6473 50.731C73.6854 46.4507 71.8022 43.1819 68.0013 41.267C64.2355 39.3699 60.5515 39.8257 57.0413 42.4142ZM82.5812 58.6873C85.0021 52.8675 84.8499 47.1088 82.2557 41.3167C81.1793 41.847 80.2069 42.3259 79.2625 42.7911C81.6028 48.2244 81.473 53.4851 78.8988 58.6999C79.9107 59.2185 80.8592 59.7047 81.858 60.2167C82.0921 59.7259 82.3101 59.2689 82.5812 58.6873ZM64.8541 67.9444C61.4447 68.2109 58.2221 67.5093 55.1223 65.9498C54.597 66.9681 54.1106 67.9112 53.6267 68.8492C59.1713 72.1559 67.3508 72.0967 72.3037 69.2259C71.8403 68.2634 71.376 67.2992 71.0154 66.5504C68.9435 67.0209 66.9787 67.467 64.8541 67.9444ZM46.108 47.3167C46.6235 45.5813 47.139 43.846 47.6781 42.0312C46.8629 41.5653 45.94 41.0379 44.9425 40.4678C41.8013 46.7276 41.6498 52.9891 44.5019 59.4109C45.5474 58.8998 46.5228 58.4229 47.5213 57.9348C45.992 54.5139 45.5073 51.0623 46.108 47.3167ZM56.133 30.6954C55.5694 30.9312 55.0058 31.167 54.3921 31.4238C54.9041 32.4871 55.3654 33.4452 55.8446 34.4406C61.2155 32.0818 66.4732 32.2051 71.6596 34.8014C72.1564 33.8456 72.6247 32.9468 73.0889 32.0458C73.1132 31.9986 73.1036 31.9338 73.1203 31.7812C67.6698 29.0324 62.0539 28.6297 56.133 30.6954ZM47.6288 61.4276C47.1765 61.7442 46.7241 62.0609 46.108 62.4921C47.6129 64.072 49.0382 65.5683 50.5414 67.1463C51.3387 66.0982 51.9991 65.23 52.5956 64.446C51.3326 63.1202 50.1235 61.851 48.8886 60.5548C48.5633 60.781 48.1496 61.0687 47.6288 61.4276ZM74.5811 35.722C74.4381 35.9406 74.295 36.1592 74.1936 36.3141C75.4414 37.6281 76.6452 38.8958 77.8694 40.1849C78.7192 39.5863 79.6053 38.9621 80.6471 38.2281C79.1323 36.6448 77.7034 35.1514 76.2134 33.5942C75.5991 34.3936 75.1287 35.0057 74.5811 35.722ZM50.5935 33.7782C49.3038 34.9983 48.0141 36.2184 46.6655 37.4942C47.7246 38.2961 48.5751 38.94 49.3663 39.5391C50.684 38.2742 51.9453 37.0635 53.2378 35.8229C52.6457 34.9686 52.0395 34.0939 51.4095 33.185C51.1221 33.3889 50.9067 33.5417 50.5935 33.7782ZM74.488 66.363C74.7738 66.7687 75.0596 67.1743 75.4493 67.7275C77.0115 66.2271 78.5113 64.7866 80.0798 63.2801C79.0514 62.4978 78.1851 61.8389 77.3959 61.2386C76.0625 62.5097 74.796 63.7171 73.5148 64.9383C73.8096 65.3694 74.1128 65.8127 74.488 66.363Z" fill="#3A3A3A"/>
</svg>
