<svg width="32" height="32" viewBox="0 0 32 32" fill="none" xmlns="http://www.w3.org/2000/svg">
<path fill-rule="evenodd" clip-rule="evenodd" d="M11.5793 23.0754H20.4464L20.2829 24.5232H11.7428L11.5793 23.0754ZM25.1748 22.5255C25.5596 22.5548 25.8801 22.7428 26.0095 23.1698C26.2312 23.9001 25.6684 24.7473 24.9112 24.7473H23.7981C23.0032 24.7473 22.8003 24.207 22.9277 23.825C23.1454 23.1719 24.3232 22.4629 25.1748 22.5255ZM6.85369 22.5255C7.70529 22.4629 8.88308 23.1719 9.10039 23.8246C9.22613 24.207 9.02327 24.7469 8.22871 24.7469H7.1152C6.3576 24.7469 5.79562 23.8997 6.01736 23.1694C6.14831 22.7428 6.46686 22.5548 6.85369 22.5255ZM11.2784 20.4162H20.7476L20.5842 21.8639H11.4415L11.2784 20.4162ZM11.6592 17.8534H20.3672C20.6496 17.8534 21.114 18.0522 20.938 18.7323L20.8854 19.2051H11.1426L11.088 18.7323C10.9121 18.0522 11.3784 17.8534 11.6592 17.8534ZM24.5513 10.142L25.6371 10.7361V16.9098L25.133 17.1861L24.5513 10.142ZM7.48998 10.142L6.90832 17.1861L6.40379 16.9098V10.7361L7.48998 10.142ZM10.3095 9.06621H21.7161C22.2436 9.06621 22.8477 9.41569 22.9232 10.3199L23.3229 15.035H8.70512L9.1024 10.3199C9.17993 9.41569 9.78248 9.06621 10.3095 9.06621ZM9.83309 2.04532C8.7469 2.22127 7.99813 3.17289 7.88927 4.32175L7.56711 9.02925L5.83941 9.97244L4.47082 10.7011C4.24306 10.822 4.02734 10.9622 4.02734 11.2884V16.3578C4.02734 16.6844 4.24306 16.8246 4.47082 16.9459L5.83941 17.6738L6.82437 18.2137C5.46663 19.5694 4.59856 20.4459 4.59615 22.3982V25.6933C4.59615 26.5911 4.80784 27.3881 5.57549 28.1561V29.2166C5.57549 29.6352 5.91211 29.9742 6.33349 29.9742H8.47736C8.5769 29.9745 8.67552 29.9551 8.76753 29.9171C8.85955 29.8791 8.94315 29.8233 9.01352 29.7529C9.08389 29.6825 9.13964 29.5988 9.17758 29.5068C9.21551 29.4148 9.23488 29.3162 9.23456 29.2166V28.1561H22.7919V29.2166C22.7919 29.6352 23.1309 29.9742 23.5495 29.9742H25.6962C25.7955 29.9742 25.8939 29.9546 25.9857 29.9165C26.0775 29.8784 26.1609 29.8226 26.231 29.7522C26.3012 29.6818 26.3568 29.5983 26.3946 29.5064C26.4324 29.4144 26.4517 29.316 26.4514 29.2166V28.1561C27.2214 27.3881 27.4307 26.5911 27.4307 25.6933V22.3982C27.4307 20.4459 26.5602 19.5694 25.2025 18.2137L26.1878 17.6738L27.558 16.9459C27.7862 16.8242 27.9999 16.6844 27.9999 16.3578V11.288C27.9999 10.9618 27.7862 10.8216 27.558 10.7007L26.1878 9.97204L24.4617 9.02885L24.14 4.32135C24.0307 3.17249 23.2799 2.22087 22.1966 2.04492L21.8511 3.68506C21.69 4.44266 21.5016 5.04079 21.0875 5.47824C20.6733 5.91529 20.0648 6.10368 19.3007 6.10368H12.7285C11.9649 6.10368 11.3543 5.91529 10.9398 5.47824C10.528 5.04079 10.3372 4.44226 10.1782 3.68506L9.83309 2.04532Z" fill="white"/>
<path fill-rule="evenodd" clip-rule="evenodd" d="M21.3244 2.05078L21.0107 3.5443C20.8624 4.25008 20.6881 4.68914 20.4643 4.92534C20.2406 5.16234 19.9417 5.28164 19.301 5.28164H12.732C12.0938 5.28164 11.7929 5.16234 11.5687 4.92534C11.3446 4.68914 11.169 4.25008 11.0208 3.5443L10.7051 2.05078H21.3244Z" fill="white"/>
</svg>
