<svg width="32" height="32" viewBox="0 0 32 32" fill="none" xmlns="http://www.w3.org/2000/svg">
<path d="M28.016 13.0831H27.7827C27.0827 13.0831 26.3827 12.6164 26.0327 11.9164C25.6827 11.2164 25.7994 10.2831 26.3827 9.69981L26.4994 9.58314C27.1994 8.7665 27.1994 7.59986 26.4994 6.78321L25.2161 5.49991C24.3994 4.79993 23.2328 4.79993 22.4162 5.49991L22.2995 5.61658C21.7162 6.19989 20.8995 6.31656 20.1995 6.08323C20.1995 6.08323 20.0829 6.08323 20.0829 5.96657C19.3829 5.61658 18.9162 4.91659 18.9162 4.21661V3.98328C18.9162 2.93331 18.0996 2 16.933 2H15.0663C14.0164 2 13.0831 2.81665 13.0831 3.98328V4.21661C13.0831 4.91659 12.6164 5.61658 11.9164 5.96657C11.7998 5.96657 11.7998 5.96657 11.7998 6.08323C11.0998 6.31656 10.1665 6.19989 9.69981 5.61658L9.46648 5.49991C8.7665 4.68327 7.4832 4.68327 6.78321 5.49991L5.38325 6.78321C4.68327 7.4832 4.68327 8.7665 5.49991 9.58314L5.61658 9.69981C6.19989 10.2831 6.31656 11.0998 5.96657 11.9164C5.61658 12.6164 4.91659 13.0831 4.21661 13.0831H3.98328C2.93331 13.0831 2 14.0164 2 15.0663V16.933C2 17.9829 2.93331 18.9162 3.98328 18.9162H4.21661C4.91659 18.9162 5.61658 19.3829 5.96657 20.0829C6.31656 20.7829 6.19989 21.7162 5.61658 22.2995L5.49991 22.4162C4.79993 23.1161 4.79993 24.3994 5.49991 25.2161L6.78321 26.4994C7.4832 27.316 8.7665 27.316 9.46648 26.4994L9.58314 26.3827C10.1665 25.7994 10.9831 25.6827 11.6831 25.9161C11.6831 25.9161 11.7998 25.9161 11.7998 26.0327C12.4997 26.3827 12.9664 27.0827 12.9664 27.7827V28.016C12.9664 29.066 13.783 29.9993 14.9497 29.9993H16.8163C17.8663 29.9993 18.7996 29.1826 18.7996 28.016V27.7827C18.7996 26.966 19.2662 26.2661 19.9662 26.0327C19.9662 26.0327 20.0829 26.0327 20.0829 25.9161C20.7829 25.5661 21.5995 25.7994 22.1828 26.3827L22.2995 26.4994C22.9995 27.316 24.2828 27.316 25.0994 26.4994L26.3827 25.2161C27.0827 24.3994 27.0827 23.2328 26.3827 22.4162L26.2661 22.2995C25.6827 21.7162 25.5661 20.8995 25.9161 20.0829C26.2661 19.3829 26.966 18.7996 27.7827 18.7996H28.016C29.066 18.7996 29.9993 17.9829 29.9993 16.8163V14.9497C29.9993 14.0164 29.1826 13.0831 28.016 13.0831ZM15.9996 22.4162C12.4997 22.4162 9.58314 19.4996 9.58314 15.9996C9.58314 12.4997 12.4997 9.58314 15.9996 9.58314C19.4996 9.58314 22.4162 12.3831 22.4162 15.9996C22.4162 19.6162 19.4996 22.4162 15.9996 22.4162Z" fill="white"/>
<path d="M18.4513 13.5508C18.1013 13.5508 17.868 13.5508 17.6346 13.7841L15.1847 15.6507L14.6014 14.9507C14.368 14.7174 14.1347 14.6008 13.7847 14.4841C13.4347 14.4841 13.2014 14.4841 12.9681 14.7174C12.5014 15.1841 12.3848 15.8841 12.7348 16.3507L14.0181 17.984C14.2514 18.334 14.6014 18.4507 14.9514 18.4507C15.1847 18.4507 15.418 18.334 15.6513 18.2173L19.0346 15.6507C19.5012 15.3007 19.6179 14.4841 19.2679 14.0174C19.0346 13.7841 18.8013 13.6674 18.4513 13.5508Z" fill="white"/>
</svg>
