<svg width="32" height="32" viewBox="0 0 32 32" fill="none" xmlns="http://www.w3.org/2000/svg">
<path d="M2.33398 13.334V18.6673C2.33398 22.4393 2.33398 24.3246 3.50598 25.4966C3.79532 25.786 4.12865 26.0033 4.52332 26.1686L4.49798 25.99C4.33398 24.766 4.33398 23.2393 4.33398 21.466V10.5367C4.33398 8.76332 4.33398 7.23532 4.49798 6.01265L4.52465 5.83398C4.1435 5.98748 3.79709 6.216 3.50598 6.50598C2.33398 7.67798 2.33398 9.56332 2.33398 13.334ZM29.0006 13.334V18.6673C29.0006 22.4393 29.0007 24.3246 27.8286 25.4966C27.5393 25.786 27.206 26.0033 26.8113 26.1686L26.8367 25.99C27.0007 24.766 27.0007 23.2393 27.0007 21.466V10.5367C27.0007 8.76332 27.0007 7.23532 26.8367 6.01265L26.81 5.83398C27.206 5.99798 27.5393 6.21665 27.8286 6.50598C29.0007 7.67798 29.0006 9.56332 29.0006 13.334Z" fill="white"/>
<path fill-rule="evenodd" clip-rule="evenodd" d="M7.50598 3.83802C6.33398 5.00868 6.33398 6.89535 6.33398 10.666V21.3327C6.33398 25.1033 6.33398 26.99 7.50598 28.1607C8.67665 29.3327 10.5633 29.3327 14.334 29.3327H17.0007C20.7713 29.3327 22.658 29.3327 23.8286 28.1607C25.0007 26.99 25.0007 25.1033 25.0007 21.3327V10.666C25.0007 6.89535 25.0007 5.00868 23.8286 3.83802C22.658 2.66602 20.7713 2.66602 17.0007 2.66602H14.334C10.5633 2.66602 8.67665 2.66602 7.50598 3.83802ZM10.6673 22.666C10.6673 22.4008 10.7727 22.1464 10.9602 21.9589C11.1477 21.7714 11.4021 21.666 11.6673 21.666H15.6673C15.9325 21.666 16.1869 21.7714 16.3744 21.9589C16.562 22.1464 16.6673 22.4008 16.6673 22.666C16.6673 22.9312 16.562 23.1856 16.3744 23.3731C16.1869 23.5607 15.9325 23.666 15.6673 23.666H11.6673C11.4021 23.666 11.1477 23.5607 10.9602 23.3731C10.7727 23.1856 10.6673 22.9312 10.6673 22.666ZM11.6673 16.3327C11.4021 16.3327 11.1477 16.438 10.9602 16.6256C10.7727 16.8131 10.6673 17.0675 10.6673 17.3327C10.6673 17.5979 10.7727 17.8523 10.9602 18.0398C11.1477 18.2273 11.4021 18.3327 11.6673 18.3327H19.6673C19.9325 18.3327 20.1869 18.2273 20.3744 18.0398C20.562 17.8523 20.6673 17.5979 20.6673 17.3327C20.6673 17.0675 20.562 16.8131 20.3744 16.6256C20.1869 16.438 19.9325 16.3327 19.6673 16.3327H11.6673ZM10.6673 11.9993C10.6673 11.7341 10.7727 11.4798 10.9602 11.2922C11.1477 11.1047 11.4021 10.9993 11.6673 10.9993H19.6673C19.9325 10.9993 20.1869 11.1047 20.3744 11.2922C20.562 11.4798 20.6673 11.7341 20.6673 11.9993C20.6673 12.2646 20.562 12.5189 20.3744 12.7065C20.1869 12.894 19.9325 12.9993 19.6673 12.9993H11.6673C11.4021 12.9993 11.1477 12.894 10.9602 12.7065C10.7727 12.5189 10.6673 12.2646 10.6673 11.9993Z" fill="white"/>
</svg>
