<svg width="336" height="1252" viewBox="0 0 336 1252" fill="none" xmlns="http://www.w3.org/2000/svg">
<path opacity="0.4" d="M360.539 1510.84C363.724 1488.37 331.486 1433.89 317.054 1395.4C278.203 1291.76 360.954 1182.09 415.912 1179.89C476.759 1177.45 480.009 1267.55 434.04 1276.2C395.364 1283.48 352.378 1255.69 304.12 1211.11C223.95 1137.04 132.175 1029.85 138.815 888.245C145.679 741.864 327.73 711.212 346.029 581.144C358.27 494.138 332.421 401.692 277.11 322.089C221.798 242.487 109.067 208.388 63.142 227.908C9.16704 250.85 32.9238 326.235 84.1554 321.515C141.726 316.212 158.062 287.085 197.385 227.771C312.542 54.0676 56.1837 3.36209 8.16288 -152.91C-33.7756 -289.388 123.51 -469.243 91.8057 -506.948" stroke="white" stroke-width="2" stroke-dasharray="9 9"/>
</svg>
