<svg width="1768" height="563" viewBox="0 0 1768 563" fill="none" xmlns="http://www.w3.org/2000/svg">
<path opacity="0.4" d="M1935.42 561.466C1916.53 548.862 1853.47 554.331 1812.52 550.67C1702.28 540.812 1639.27 418.734 1661.08 368.241C1685.23 312.338 1767.85 348.423 1755.74 393.605C1745.55 431.62 1701.89 458.334 1640.81 482.527C1539.33 522.717 1402.97 559.025 1278.2 491.719C1149.23 422.145 1200.44 244.775 1091.12 171.957C1017.99 123.246 923.472 106.514 827.769 121.9C732.065 137.287 652.513 224.134 650.221 273.983C647.528 332.57 725.765 343.8 743.696 295.577C763.846 241.387 744.666 214.05 708.229 152.92C601.523 -26.0992 444.807 183.02 283.152 158.634C141.973 137.337 47.965 -82.3198 0.249077 -70.0692" stroke="white" stroke-width="2" stroke-dasharray="9 9"/>
</svg>
