<svg width="2038" height="802" viewBox="0 0 2038 802" fill="none" xmlns="http://www.w3.org/2000/svg">
<path opacity="0.4" d="M1992.15 694.466C1973.27 681.862 1910.21 687.331 1869.26 683.67C1759.02 673.812 1696 551.734 1717.81 501.241C1741.96 445.338 1824.58 481.423 1812.48 526.605C1802.29 564.62 1758.63 591.334 1697.54 615.527C1596.07 655.717 1459.71 692.025 1334.94 624.719C1205.97 555.145 1257.17 377.775 1147.86 304.957C1074.73 256.246 980.208 239.514 884.505 254.9C788.802 270.287 709.249 357.134 706.958 406.983C704.264 465.57 782.502 476.8 800.433 428.577C820.582 374.387 801.402 347.05 764.965 285.92C658.259 106.901 501.543 316.02 339.889 291.634C198.709 270.337 104.701 50.6802 56.9854 62.9308" stroke="white" stroke-width="2" stroke-dasharray="9 9"/>
<path d="M235.336 238.781C235.502 239.501 234.857 240.147 234.137 239.98L225.197 237.917C224.432 237.741 224.16 236.791 224.715 236.236L231.592 229.359C232.147 228.804 233.097 229.076 233.273 229.842L235.336 238.781Z" fill="white"/>
<path d="M707.336 226.781C707.502 227.501 706.857 228.147 706.137 227.98L697.197 225.917C696.432 225.741 696.16 224.791 696.715 224.236L703.592 217.359C704.147 216.804 705.097 217.076 705.273 217.842L707.336 226.781Z" fill="white"/>
<path d="M710.508 386.246C711.049 385.742 711.93 385.978 712.147 386.685L714.83 395.458C715.059 396.209 714.373 396.92 713.615 396.717L704.221 394.2C703.463 393.996 703.224 393.038 703.798 392.502L710.508 386.246Z" fill="white"/>
<path d="M1179.3 332.75C1179.47 333.47 1178.83 334.115 1178.11 333.949L1169.17 331.886C1168.4 331.71 1168.13 330.76 1168.68 330.205L1175.56 323.328C1176.12 322.773 1177.07 323.045 1177.24 323.81L1179.3 332.75Z" fill="white"/>
<path d="M1372.3 641.151C1372.8 641.691 1372.57 642.573 1371.86 642.789L1363.09 645.472C1362.34 645.702 1361.63 645.016 1361.83 644.257L1364.35 634.864C1364.55 634.105 1365.51 633.866 1366.04 634.441L1372.3 641.151Z" fill="white"/>
<path d="M1769.39 578.466C1770.13 578.492 1770.58 579.282 1770.24 579.935L1765.93 588.036C1765.56 588.729 1764.57 588.747 1764.18 588.066L1759.32 579.644C1758.92 578.964 1759.43 578.118 1760.22 578.145L1769.39 578.466Z" fill="white"/>
<path d="M1809.01 665.549C1809.35 666.202 1808.9 666.992 1808.16 667.018L1798.99 667.339C1798.2 667.367 1797.69 666.52 1798.09 665.84L1802.95 657.418C1803.34 656.738 1804.33 656.755 1804.7 657.448L1809.01 665.549Z" fill="white"/>
</svg>
