<svg width="657" height="2051" viewBox="0 0 657 2051" fill="none" xmlns="http://www.w3.org/2000/svg">
<path opacity="0.4" d="M485.109 2029.84C488.295 2007.37 456.056 1952.89 441.625 1914.4C402.773 1810.76 485.524 1701.09 540.482 1698.89C601.329 1696.45 604.579 1786.55 558.611 1795.2C519.934 1802.48 476.949 1774.69 428.69 1730.11C348.52 1656.04 256.745 1548.85 263.385 1407.25C270.249 1260.86 452.3 1230.21 470.6 1100.14C482.84 1013.14 456.992 920.692 401.68 841.089C346.369 761.487 233.638 727.388 187.712 746.908C133.737 769.85 157.494 845.235 208.726 840.515C266.297 835.212 282.632 806.085 321.955 746.771C437.112 573.068 180.754 522.362 132.733 366.09C90.7947 229.612 248.081 49.7569 216.376 12.0517" stroke="white" stroke-width="2" stroke-dasharray="9 9"/>
<path d="M411.801 1204.54C411.087 1204.73 410.421 1204.11 410.565 1203.38L412.345 1194.38C412.498 1193.61 413.438 1193.31 414.011 1193.85L421.1 1200.5C421.673 1201.04 421.431 1202 420.671 1202.2L411.801 1204.54Z" fill="white"/>
<path d="M429.236 883.646C429.184 884.383 428.378 884.812 427.738 884.442L419.793 879.855C419.113 879.463 419.13 878.475 419.824 878.106L428.411 873.541C429.104 873.173 429.932 873.711 429.877 874.494L429.236 883.646Z" fill="white"/>
<path d="M352.185 657.629C351.809 658.265 350.897 658.288 350.489 657.672L345.432 650.017C344.999 649.362 345.456 648.486 346.241 648.466L355.963 648.221C356.748 648.201 357.249 649.052 356.849 649.729L352.185 657.629Z" fill="white"/>
</svg>
