<svg width="1920" height="369" viewBox="0 0 1920 369" fill="none" xmlns="http://www.w3.org/2000/svg">
<path opacity="0.4" d="M2089.43 339.76C2069.83 328.172 2007.12 338.248 1965.98 337.393C1855.23 335.093 1785.18 214.363 1804.05 161.037C1824.95 101.997 1909.61 133.15 1900.13 180.343C1892.15 220.049 1850.06 250.538 1790.41 279.675C1691.32 328.079 1639.44 343.178 1510.52 317.273C1381.6 291.367 1296.69 234.323 1152.52 218.757C1016.49 204.069 935.021 206.757 802.52 234.257C739.413 247.354 673.49 263.257 656.021 310.257C635.021 366.757 723.893 390.48 739.021 339.757C756.021 282.757 737.979 240.451 698.021 180.343C581.002 4.31359 436.483 229.87 273.502 216.314C131.164 204.474 24.4822 -14.1296 -22.4986 1.81356" stroke="white" stroke-width="2" stroke-dasharray="9 9"/>
</svg>
