<svg width="2187" height="875" viewBox="0 0 2187 875" fill="none" xmlns="http://www.w3.org/2000/svg">
<path opacity="0.4" d="M2154.76 578.334C2135.16 566.746 2072.44 576.822 2031.31 575.968C1920.55 573.667 1850.5 452.938 1869.38 399.611C1890.27 340.571 1974.94 371.724 1965.45 418.917C1957.48 458.624 1915.39 489.112 1855.74 518.249C1756.64 566.654 1704.77 581.753 1575.84 555.847C1446.92 529.941 1362.01 472.898 1217.84 457.331C1081.82 442.643 1000.35 445.331 867.844 472.831C804.737 485.929 738.814 501.831 721.345 548.831C700.345 605.331 789.217 629.055 804.345 578.331C821.345 521.331 803.303 479.026 763.345 418.917C646.326 242.888 501.807 468.445 338.826 454.888C196.488 443.048 89.8065 224.445 42.8256 240.388" stroke="white" stroke-width="2" stroke-dasharray="9 9"/>
<path d="M846.44 476.018C847.137 476.263 847.337 477.153 846.812 477.673L840.287 484.122C839.728 484.674 838.781 484.397 838.608 483.63L836.477 474.142C836.305 473.376 837.043 472.719 837.784 472.979L846.44 476.018Z" fill="white"/>
<path d="M343.634 454.044C344.261 454.436 344.261 455.348 343.634 455.74L335.854 460.602C335.188 461.019 334.324 460.54 334.324 459.754L334.324 450.03C334.324 449.244 335.188 448.765 335.854 449.182L343.634 454.044Z" fill="white"/>
<path d="M79.221 255.586C79.3871 256.306 78.7418 256.951 78.0217 256.785L69.0823 254.722C68.3169 254.545 68.0446 253.596 68.6 253.041L75.4765 246.164C76.0319 245.609 76.9814 245.881 77.158 246.646L79.221 255.586Z" fill="white"/>
<path d="M1528.27 543.038C1528.77 543.578 1528.54 544.46 1527.83 544.676L1519.06 547.359C1518.31 547.589 1517.6 546.903 1517.8 546.144L1520.32 536.75C1520.52 535.992 1521.48 535.753 1522.01 536.327L1528.27 543.038Z" fill="white"/>
<path d="M1924.2 528.667C1924.55 529.319 1924.09 530.109 1923.35 530.135L1914.19 530.456C1913.4 530.484 1912.89 529.637 1913.28 528.957L1918.15 520.535C1918.54 519.855 1919.53 519.872 1919.9 520.566L1924.2 528.667Z" fill="white"/>
</svg>
