<svg width="48" height="48" viewBox="0 0 48 48" fill="none" xmlns="http://www.w3.org/2000/svg">
<path d="M4 8.25C4 7.00736 4.99492 6 6.22222 6H19.5556C20.7829 6 21.7778 7.00736 21.7778 8.25V23.5293C21.7778 23.8398 21.7143 24.1468 21.5915 24.4312L14.5825 40.6518C14.2287 41.4708 13.4295 42 12.5466 42H7.02265C5.52345 42 4.45441 40.5277 4.90158 39.0789L9.10477 25.4606C9.32835 24.7361 8.79383 24 8.04423 24H6.22222C4.99492 24 4 22.9926 4 21.75V8.25Z" fill="#C83A36"/>
<path d="M26.2222 8.25C26.2222 7.00736 27.2171 6 28.4444 6H41.7778C43.0051 6 44 7.00736 44 8.25V23.5293C44 23.8398 43.9366 24.1468 43.8137 24.4312L36.8048 40.6518C36.4509 41.4708 35.6517 42 34.7689 42H29.2449C27.7457 42 26.6766 40.5277 27.1238 39.0789L31.327 25.4606C31.5506 24.7361 31.0161 24 30.2665 24H28.4444C27.2171 24 26.2222 22.9926 26.2222 21.75V8.25Z" fill="#C83A36"/>
</svg>
