<svg width="255" height="673" viewBox="0 0 255 673" fill="none" xmlns="http://www.w3.org/2000/svg">
<path fill-rule="evenodd" clip-rule="evenodd" d="M19.8509 192.062L24.3801 197.979L27.5424 196.592L26.5835 188.349L23.4212 186.717L19.8509 192.062Z" fill="#3A3A3A"/>
<path fill-rule="evenodd" clip-rule="evenodd" d="M32.4796 154.564L34.8258 157.583L37.2945 154.972L36.1927 150.851L33.0304 151.81L32.4796 154.564Z" fill="#3A3A3A"/>
<path fill-rule="evenodd" clip-rule="evenodd" d="M137.263 110.455L141.078 113.271L143.894 111.618L141.915 107.456L137.263 110.455Z" fill="#3A3A3A"/>
<path fill-rule="evenodd" clip-rule="evenodd" d="M103.539 104.967L108.354 107.619L108.68 103.804L105.538 100.152L103.213 102.152L103.539 104.967Z" fill="#3A3A3A"/>
<path fill-rule="evenodd" clip-rule="evenodd" d="M133.264 120.921L135.101 122.9L137.426 120.738L134.774 117.922L133.264 120.921Z" fill="#3A3A3A"/>
<path fill-rule="evenodd" clip-rule="evenodd" d="M52.1265 171.049L55.8397 174.476L58.3083 172.007L57.3494 168.152L54.1871 167.335L52.1265 171.049Z" fill="#3A3A3A"/>
<path fill-rule="evenodd" clip-rule="evenodd" d="M61.0625 175.435L63.1231 176.965L64.49 174.354L62.1642 171.742L61.0625 175.435Z" fill="#3A3A3A"/>
<path fill-rule="evenodd" clip-rule="evenodd" d="M66.4078 165.418L68.4684 166.785L69.7129 164.459L66.5506 162.398L66.4078 165.418Z" fill="#3A3A3A"/>
<path fill-rule="evenodd" clip-rule="evenodd" d="M70.1209 159.93L72.4671 161.704L74.6501 158.542L71.0798 155.931L69.162 157.318L70.1209 159.93Z" fill="#3A3A3A"/>
<path fill-rule="evenodd" clip-rule="evenodd" d="M53.4934 140.956L56.1049 142.751L59.9608 140.405L57.7574 136.57L54.4727 135.611L51.3105 138.344L53.4934 140.956Z" fill="#3A3A3A"/>
<path fill-rule="evenodd" clip-rule="evenodd" d="M61.7358 127.491L60.7769 129.837L62.8375 132.714L65.0408 130.388L65.1837 127.776L61.7358 127.491Z" fill="#3A3A3A"/>
<path fill-rule="evenodd" clip-rule="evenodd" d="M119.31 8.9768L129.286 10.7926L126.96 3.3255L119.983 3.48872L119.31 8.9768Z" fill="#3A3A3A"/>
<path fill-rule="evenodd" clip-rule="evenodd" d="M127.634 27.7465L133.101 20.4222L131.775 13.9549L137.08 10.4662L142.404 5.14129L148.382 10.4662L151.708 19.9326L153.707 24.0945L148.219 27.0732V32.2145L134.59 38.3758L127.634 32.0512V27.7465Z" fill="#3A3A3A"/>
<path fill-rule="evenodd" clip-rule="evenodd" d="M122.635 35.8868L133.101 39.8651L131.612 44.8432L126.797 47.4954L119.82 42.6806L118.657 38.0289L122.635 35.8868Z" fill="#3A3A3A"/>
<path fill-rule="evenodd" clip-rule="evenodd" d="M131.938 52.4938L136.59 41.028L149.382 34.7034L151.708 43.517L155.033 42.5173L155.523 38.7022L161.337 44.3535L160.848 51.8205L156.522 58.7979L160.174 63.1231L159.175 69.5905L154.523 72.0795L145.057 65.6121L136.59 58.3083L131.775 56.1457L131.938 52.4938Z" fill="#3A3A3A"/>
<path fill-rule="evenodd" clip-rule="evenodd" d="M165.316 58.9612L164.173 73.9157L158.522 84.2186L160.684 92.012L169.967 84.545L179.781 83.8717L184.922 78.7305L185.595 66.775L180.107 59.7976L175.455 64.4492L172.966 61.797L173.293 54.636L165.316 58.9612Z" fill="#3A3A3A"/>
<path fill-rule="evenodd" clip-rule="evenodd" d="M192.736 80.5666L193.552 84.545L200.876 86.1975L200.529 83.3821L193.225 78.8937L192.736 80.5666Z" fill="#3A3A3A"/>
<path fill-rule="evenodd" clip-rule="evenodd" d="M55.5336 32.9489L54.942 36.0704L58.1451 39.3142L62.6742 39.4163L62.4702 35.3767L59.3488 31.2351L55.5336 32.9489Z" fill="#3A3A3A"/>
<path fill-rule="evenodd" clip-rule="evenodd" d="M75.6498 8.67076L79.873 9.97647L84.5042 8.77277L81.7907 2.73386L78.3632 0L75.9558 2.3258L75.4458 6.14096L75.6498 8.67076Z" fill="#3A3A3A"/>
<path d="M238.925 399.038L238.619 399.222L232.805 394.652H219.442L220.319 386.797L220.339 386.655L220.421 386.532L228.071 377.29L230.336 371.231L225.399 367.803L225.174 367.66V360.704L220.849 355.97L220.686 355.787L220.727 355.542L222.685 346.116L217.667 342.26L217.238 341.934L217.605 341.526L225.154 333.181L222.359 297.846L213.505 284.238L217.932 281.953L228.582 273.282L228.745 273.159L228.949 273.18L235.233 273.914L237.518 262.877L237.538 262.775L237.579 262.714L240.7 258.062L241.475 251.84L241.496 251.636L241.639 251.513L254.716 241.149L249.106 234.416L248.983 234.274V223.563L237.599 207.466L237.538 207.384L237.518 207.262L235.947 199.06L232.458 194.409L232.335 194.266L232.356 194.082L232.723 189.41L225.705 192.919L217.728 199.06L206.792 202.243L202.549 209.71L202.814 199.06L224.909 176.149L237.171 154.054L242.761 134.346L225.705 114.903L209.73 114.372L204.14 122.349L197.754 123.431L202.549 109.843L189.492 108.231L193.756 102.111L185.758 95.4599L178.577 98.1122L167.131 115.168L169.784 125.287L157.543 126.083L157.808 129.286L162.337 135.937L153.544 134.081L149.015 138.324L138.895 136.468L137.569 131.938L123.186 132.204L123.451 140.466L106.13 142.853L94.4194 152.177L85.3611 152.442L78.7101 158.297L75.7722 170.294L81.3623 180.413L72.8548 182.535L50.2088 178.822L37.172 178.536L33.1733 185.738L32.6429 204.385L40.8851 212.362L44.8839 221.686H33.4385L23.5845 203.304L16.3622 203.732L16.4438 204.671L22.748 218.054L23.0132 218.646L22.3807 218.748L15.5869 219.87L14.0976 228.092L20.3609 241.394L20.4426 241.557L20.4018 241.741L18.8104 248.065L18.7492 248.29L18.5248 248.392L3.71308 255.022L1.85651 262.469L11.5066 275.22L22.7276 278.015L22.7888 278.341L25.1758 291.99L24.4617 293.765V293.745L20.6058 303.538L20.5242 303.762L20.2793 303.823L10.2825 306.516L13.3019 313.698L13.3836 313.861L10.16 323.531L18.1167 333.855L18.2391 334.018L18.2188 334.222L16.199 353.073L22.5847 361.846L22.7071 362.009L22.6664 362.213L20.2793 375.699L29.9294 382.941L29.9702 383.125L31.5819 392.857L31.6228 393.061L31.5003 393.244L23.0744 404.873L22.2583 415.278V415.421L22.1563 415.543L9.16038 432.069V444.942L19.7693 451.063L20.1569 451.267L19.9937 451.655L18.0964 456.551L18.0147 456.755L17.8311 456.837L8.30348 460.917L8.18107 460.958L0.0407812 461.957L3.57031 474.382L3.63151 474.627L0 479.156V485.705L25.747 489.684L25.849 489.928L33.3161 505.311L40.2119 506.168L40.6811 506.229L40.6403 506.699L40.1915 512.493L40.1711 512.697L40.0283 512.84L29.9498 521.592L30.7863 528.753L36.3968 534.343L44.7615 536.995L45.2103 537.138L45.0879 537.587L43.7414 542.504L43.7006 542.667L43.5782 542.769L34.377 549.767L33.9485 558.927L33.9281 559.233L33.8669 559.254L32.6224 565.089L40.5791 580.553L40.7423 580.859L40.4975 581.124L36.4171 585.205L36.3356 585.245L32.9489 586.837L36.9272 598.588H44.5778L52.147 597.691L52.3101 597.67L52.4733 597.772L57.3698 600.894L57.737 601.118L57.5534 601.526L55.0032 607.075L60.6545 615.767L60.7157 615.869V615.95L62.0622 623.519L64.7144 631.517L64.7552 631.639L65.1837 637.433L65.2244 637.76L64.9389 637.923L58.4919 641.33V646.512L58.4511 646.614L56.2273 651.51L56.1457 651.714L55.9417 651.776L48.9846 654.387L45.2307 662.303L56.4313 670.198L74.8541 672.606L82.8516 665.935L82.9332 665.853L83.0556 665.833L87.3196 664.833L87.5644 660.569L87.5848 660.324L87.7889 660.181L94.3378 655.999L93.8278 651.408L93.7666 651L94.195 650.878L99.0711 649.593L100.622 643.085L100.724 642.738L101.07 642.697L125.451 640.555L126.675 634.944L113.067 622.744L112.883 622.601V616.807L113.169 616.664L119.248 613.828L119.391 613.767L119.514 613.788L127.124 614.542L128.694 590.734L128.715 590.632L128.756 590.53L133.632 581.206L133.734 580.982L133.999 580.941L142.16 579.778L143.669 573.025L135.264 559.825L135.101 559.56L135.243 559.315L142.955 545.115L143.078 544.87H143.363L162.174 544.054L167.315 537.363L167.805 536.71L168.151 537.444L175.251 552.827L179.332 551.113L178.556 542.157L178.536 541.932L178.699 541.79L196.836 522.041L198.02 514.166L197.958 513.9L207.67 509.432L207.874 509.881L212.281 519.47L220.502 524.326L222.359 517.675L222.4 517.532L227.133 512.799L225.297 507.249L221.074 506.107L220.686 506.005L220.727 505.597L221.114 500.333L221.135 500.15L221.257 500.027L227.561 493.315L226.46 488.174L217.83 485.42L217.565 485.358L217.503 485.093L215.055 476.994L214.994 476.769L215.137 476.565L219.401 470.751L215.524 464.141L215.28 463.712L215.688 463.447L226.113 457.041L232.05 445.534L231.275 436.476L227.276 430.09L227.133 429.866L227.255 429.621L231.213 420.889L229.275 415.809L229.234 415.747V415.666L228.826 407.566L228.806 407.22L229.132 407.077L236.416 403.833L236.477 403.812H236.518L244.066 402.221L247.331 398.59L244.617 395.223L238.925 399.038Z" fill="#3A3A3A"/>
</svg>
