<svg width="32" height="32" viewBox="0 0 32 32" fill="none" xmlns="http://www.w3.org/2000/svg">
<path d="M13.4867 29.082C14.2947 29.7487 15.1373 30.358 16 30.9527C16.8645 30.3659 17.7031 29.7417 18.5133 29.082C19.864 27.9729 21.1351 26.7704 22.3173 25.4833C25.0427 22.5033 28 18.1833 28 13.334C28 11.7581 27.6896 10.1977 27.0866 8.74178C26.4835 7.28588 25.5996 5.96301 24.4853 4.8487C23.371 3.7344 22.0481 2.85049 20.5922 2.24743C19.1363 1.64437 17.5759 1.33398 16 1.33398C14.4241 1.33398 12.8637 1.64437 11.4078 2.24743C9.95189 2.85049 8.62902 3.7344 7.51472 4.8487C6.40042 5.96301 5.5165 7.28588 4.91345 8.74178C4.31039 10.1977 4 11.7581 4 13.334C4 18.1833 6.95733 22.502 9.68267 25.4833C10.8648 26.7709 12.136 27.9725 13.4867 29.082ZM16 17.6673C14.8507 17.6673 13.7485 17.2108 12.9359 16.3981C12.1232 15.5855 11.6667 14.4833 11.6667 13.334C11.6667 12.1847 12.1232 11.0825 12.9359 10.2699C13.7485 9.4572 14.8507 9.00065 16 9.00065C17.1493 9.00065 18.2515 9.4572 19.0641 10.2699C19.8768 11.0825 20.3333 12.1847 20.3333 13.334C20.3333 14.4833 19.8768 15.5855 19.0641 16.3981C18.2515 17.2108 17.1493 17.6673 16 17.6673Z" fill="white"/>
</svg>
