<svg width="167" height="48" viewBox="0 0 167 48" fill="none" xmlns="http://www.w3.org/2000/svg">
<path d="M6.66896 9.31903C9.38359 4.06383 13.6406 0.928164 19.4627 0.150575C28.5085 -1.05757 36.3645 5.15058 37.9383 13.5278C38.5757 16.9211 37.8398 19.9848 36.2545 22.9479C34.4755 26.2732 32.2069 29.2502 29.7661 32.1033C27.3247 34.9572 24.7171 37.6551 21.9619 40.2097C21.8536 40.3101 21.7382 40.4028 21.587 40.5327C20.765 39.7469 19.9448 38.9863 19.1507 38.1995C15.7667 34.8468 12.5663 31.3332 9.78275 27.4583C8.40393 25.5389 7.1886 23.5258 6.19387 21.377C4.56629 17.8612 4.76609 14.3318 6.04399 10.7839C6.21935 10.297 6.44775 9.82917 6.66896 9.31903ZM18.0177 11.9512C17.6805 12.2977 17.307 12.6161 17.0122 12.9954C15.5334 14.8989 15.4771 17.6069 16.8506 19.6088C18.2754 21.6855 20.874 22.6042 23.2663 21.8769C25.6129 21.1636 27.3192 18.9871 27.3406 16.5932C27.362 14.2041 26.3047 12.3797 24.1708 11.3109C22.0566 10.252 19.9884 10.5065 18.0177 11.9512ZM32.3562 21.034C33.7154 17.7857 33.6299 14.5715 32.1735 11.3386C31.5692 11.6346 31.0232 11.9019 30.4931 12.1616C31.8069 15.1941 31.7341 18.1304 30.2889 21.041C30.8569 21.3305 31.3894 21.6019 31.9502 21.8876C32.0816 21.6137 32.204 21.3586 32.3562 21.034ZM22.4039 26.2008C20.4899 26.3496 18.6806 25.958 16.9404 25.0875C16.6454 25.6559 16.3723 26.1823 16.1007 26.7058C19.2135 28.5515 23.8056 28.5184 26.5863 26.9161C26.3261 26.3789 26.0654 25.8407 25.863 25.4228C24.6998 25.6854 23.5967 25.9344 22.4039 26.2008ZM11.8795 14.6875C12.169 13.7189 12.4584 12.7503 12.761 11.7374C12.3034 11.4774 11.7852 11.183 11.2252 10.8648C9.4617 14.3587 9.37667 17.8536 10.9779 21.4379C11.5648 21.1526 12.1125 20.8864 12.673 20.614C11.8144 18.7046 11.5423 16.7781 11.8795 14.6875ZM17.5077 5.41036C17.1913 5.54197 16.8749 5.67358 16.5304 5.81691C16.8178 6.41041 17.0768 6.94519 17.3459 7.50073C20.3612 6.18419 23.3129 6.25304 26.2246 7.70215C26.5036 7.16867 26.7665 6.66697 27.0271 6.1641C27.0408 6.13777 27.0354 6.1016 27.0447 6.01641C23.9847 4.48219 20.8319 4.25741 17.5077 5.41036ZM12.7334 22.5635C12.4794 22.7402 12.2255 22.917 11.8796 23.1577C12.7245 24.0395 13.5246 24.8746 14.3685 25.7554C14.8162 25.1704 15.1869 24.6858 15.5218 24.2482C14.8127 23.5082 14.1339 22.7998 13.4407 22.0763C13.258 22.2026 13.0258 22.3632 12.7334 22.5635ZM27.8648 8.21597C27.7845 8.33797 27.7042 8.45996 27.6473 8.54646C28.3478 9.27986 29.0237 9.98743 29.711 10.7069C30.188 10.3728 30.6855 10.0244 31.2704 9.61473C30.4199 8.73104 29.6177 7.8975 28.7812 7.02834C28.4364 7.47453 28.1723 7.81618 27.8648 8.21597ZM14.3978 7.13102C13.6737 7.81203 12.9497 8.49304 12.1926 9.20513C12.7871 9.65268 13.2646 10.0121 13.7088 10.3465C14.4486 9.6405 15.1567 8.96473 15.8823 8.27228C15.5499 7.79548 15.2096 7.30726 14.8559 6.79996C14.6946 6.91373 14.5736 6.99901 14.3978 7.13102ZM27.8126 25.3182C27.973 25.5446 28.1335 25.771 28.3522 26.0798C29.2293 25.2423 30.0713 24.4383 30.9519 23.5975C30.3745 23.1608 29.8882 22.793 29.4451 22.458C28.6965 23.1675 27.9855 23.8413 27.2662 24.523C27.4317 24.7636 27.6019 25.011 27.8126 25.3182Z" fill="white"/>
<path d="M166.981 29.8579C166.981 35.7211 166.975 41.534 166.992 47.3468C166.994 47.8375 166.849 47.9594 166.373 47.9507C164.782 47.9218 163.191 47.9398 161.529 47.9398C161.581 41.7504 161.633 35.5979 161.685 29.3208C161.462 29.4951 161.287 29.5988 161.153 29.7404C157.892 33.182 154.637 36.6296 151.374 40.0695C150.98 40.4844 150.806 40.9596 150.806 41.5206C150.806 43.1118 150.806 44.7032 150.79 46.2944C150.785 46.7757 150.728 47.2566 150.689 47.8274C148.959 47.8274 147.27 47.8336 145.582 47.8124C145.477 47.8111 145.366 47.6008 145.277 47.4742C145.246 47.4292 145.272 47.3437 145.272 47.2767C145.272 38.9343 145.272 30.5919 145.272 22.2494C145.272 22.1163 145.272 21.9832 145.272 21.8078C147.08 21.8078 148.864 21.8078 150.702 21.8078C150.702 25.6782 150.702 29.5498 150.702 33.511C150.84 33.4081 150.91 33.3716 150.959 33.3171C154.276 29.675 157.595 26.0358 160.9 22.3829C161.325 21.9124 161.794 21.6709 162.434 21.6884C163.792 21.7256 165.151 21.7419 166.51 21.7353C166.889 21.7335 166.991 21.846 166.989 22.2191C166.974 24.7486 166.981 27.2781 166.981 29.8579Z" fill="white"/>
<path d="M80.9143 29.255C82.9822 26.9881 85.0325 24.7532 87.0718 22.5083C87.5664 21.9638 88.137 21.6985 88.8902 21.7359C90.0951 21.7957 91.3032 21.8101 92.5099 21.8078C92.8797 21.8072 93.0207 21.9151 93.0247 22.2816C93.0386 23.5367 93.0868 24.7915 93.0921 26.0466C93.1136 31.1553 93.1257 36.2641 93.1376 41.3728C93.1426 43.5141 93.1385 45.6553 93.1385 47.9157C92.226 47.9157 91.397 47.9239 90.5683 47.9133C89.8142 47.9038 89.0604 47.8694 88.3063 47.8546C87.6804 47.8424 87.6598 47.8269 87.6565 47.1939C87.6253 41.3485 87.5941 35.5032 87.5629 29.6578C87.5623 29.5433 87.5629 29.4288 87.5629 29.1923C87.3237 29.4004 87.1399 29.5313 86.991 29.6941C83.8141 33.1693 80.645 36.6516 77.4622 40.1214C77.0735 40.5452 76.9113 40.9965 76.9149 41.5704C76.9267 43.479 76.8889 45.3878 76.892 47.2966C76.8927 47.7284 76.7511 47.8838 76.3086 47.8831C74.9003 47.8807 73.492 47.9204 72.0836 47.9355C71.4862 47.9419 71.4166 47.8667 71.4148 47.2732C71.395 40.7908 71.367 34.3085 71.3633 27.8261C71.3623 26.0857 71.4262 24.3449 71.4795 22.6048C71.5041 21.8016 71.5251 21.8143 72.3062 21.8072C73.6143 21.7955 74.9225 21.7794 76.2299 21.7378C76.6498 21.7244 76.8133 21.818 76.8108 22.2853C76.7909 25.9709 76.7997 29.6567 76.7996 33.3424C76.7996 33.4189 76.7996 33.4955 76.7996 33.7324C78.2291 32.1786 79.5608 30.7309 80.9143 29.255Z" fill="white"/>
<path d="M142.61 24.5305C142.621 28.7342 142.626 32.8879 142.647 37.0415C142.665 40.4566 142.694 43.8717 142.741 47.2865C142.747 47.7341 142.622 47.8538 142.179 47.8454C140.72 47.8176 139.259 47.8112 137.8 47.8477C137.289 47.8605 137.205 47.6791 137.206 47.2208C137.22 41.4086 137.215 35.5963 137.215 29.784C137.215 29.6017 137.215 29.4194 137.215 29.0719C136.88 29.4246 136.631 29.6791 136.39 29.94C133.237 33.3456 130.089 36.7553 126.929 40.1542C126.51 40.6049 126.367 41.1129 126.376 41.7074C126.405 43.5991 126.415 45.491 126.439 47.3827C126.444 47.7456 126.256 47.9195 125.925 47.9233C124.382 47.9409 122.838 47.9502 121.295 47.9403C121.194 47.9396 121.078 47.7648 121 47.6498C120.961 47.5923 120.993 47.4869 120.993 47.4032C120.993 39.0281 120.993 30.6531 120.993 22.2781C120.993 22.1307 120.993 21.9834 120.993 21.8098C122.791 21.8098 124.543 21.8098 126.347 21.8098C126.347 25.6258 126.347 29.4314 126.347 33.2369C126.383 33.2572 126.42 33.2776 126.457 33.2979C126.965 32.7825 127.486 32.2794 127.978 31.7497C130.761 28.7557 133.547 25.7643 136.308 22.7498C136.919 22.0828 137.585 21.7551 138.509 21.7988C139.831 21.8612 141.158 21.8147 142.61 21.8147C142.61 22.6909 142.61 23.5857 142.61 24.5305Z" fill="white"/>
<path d="M96.8372 36.4961C96.8372 35.3516 96.8372 35.3516 95.7309 35.3017C94.8925 35.2638 94.8925 35.2638 94.8926 34.415C94.8927 33.5135 94.8926 32.612 94.8926 31.6707C95.5394 31.6707 96.1521 31.6707 96.8301 31.6707C96.8301 28.3621 96.8301 25.0926 96.8301 21.8008C98.6177 21.8008 100.34 21.8008 102.121 21.8008C102.121 24.7848 102.121 27.7546 102.121 30.7473C105.526 30.7473 108.872 30.7473 112.259 30.7473C112.259 27.7647 112.259 24.8074 112.259 21.814C113.97 21.814 115.64 21.814 117.352 21.814C117.352 30.462 117.352 39.1279 117.352 47.8274C115.684 47.8274 114.001 47.8274 112.257 47.8274C112.257 47.6404 112.257 47.4611 112.257 47.2818C112.257 43.781 112.256 40.2802 112.259 36.7794C112.259 36.4454 112.291 36.1114 112.293 35.7773C112.295 35.4424 112.165 35.272 111.779 35.2736C108.593 35.2867 105.407 35.281 102.137 35.281C102.137 39.4614 102.137 43.5999 102.137 47.7769C100.394 47.7769 98.674 47.7769 96.8372 47.7769C96.8372 44.033 96.8372 40.2894 96.8372 36.4961Z" fill="white"/>
<path d="M57.3104 29.1152C55.4327 35.2273 53.5724 41.3027 51.6943 47.3725C51.6407 47.5457 51.4035 47.7772 51.2429 47.7846C49.6021 47.8601 47.9595 47.8951 46.3173 47.9388C46.2725 47.94 46.227 47.9109 46.1211 47.8758C48.5361 40.6717 50.9482 33.476 53.378 26.2276C52.5117 26.2276 51.7112 26.2276 50.8784 26.2276C50.8784 24.7593 50.8784 23.3275 50.8784 21.8262C51.0717 21.8262 51.2485 21.8261 51.4253 21.8263C56.6774 21.8322 61.9296 21.8381 67.1817 21.8443C67.8904 21.8451 67.9252 21.879 67.9248 22.5719C67.9201 29.5742 67.9193 36.5764 67.9064 43.5786C67.904 44.8498 67.845 46.1208 67.8271 47.3921C67.8225 47.7192 67.6937 47.9247 67.3704 47.9268C65.7461 47.9375 64.1216 47.9317 62.4647 47.9317C62.4479 47.7441 62.418 47.5636 62.4176 47.383C62.4051 40.5654 62.3919 33.7478 62.3927 26.9302C62.3928 26.4982 62.2092 26.2854 61.8193 26.2767C60.6957 26.2515 59.5711 26.2433 58.4477 26.2662C58.3172 26.2689 58.1265 26.4867 58.0746 26.6418C57.805 27.4472 57.5714 28.2645 57.3104 29.1152Z" fill="white"/>
<path d="M37.6245 31.547C39.9421 32.6262 41.9403 34.0581 42.9339 36.5284C43.3253 37.5014 43.308 38.5195 42.9967 39.5294C42.6829 40.5474 42.0948 41.3947 41.358 42.14C39.7365 43.7802 37.7408 44.8261 35.6172 45.6458C32.295 46.9282 28.8345 47.5768 25.2929 47.8509C22.1241 48.0962 18.9614 48.05 15.8109 47.6398C11.8514 47.1243 8.01169 46.194 4.51504 44.1708C3.31935 43.4789 2.23066 42.6516 1.34668 41.5742C-0.492294 39.3328 -0.44672 36.6879 1.47649 34.5109C2.63658 33.1977 4.05327 32.2343 5.67096 31.5025C5.74846 31.5817 5.77629 31.635 5.78737 31.7175C5.58635 31.8549 5.40207 31.963 5.19239 32.0859C5.31432 32.2697 5.41966 32.4286 5.4974 32.5458C6.7807 31.9041 8.02303 31.2829 9.41762 30.5856C9.18678 30.5321 9.05444 30.464 8.9346 30.4814C8.69084 30.5169 8.45383 30.5986 8.21057 30.6191C8.20157 30.5209 8.19604 30.4648 8.19051 30.4088C8.93297 30.1579 9.67254 29.8976 10.4212 29.6666C10.5285 29.6334 10.7201 29.7037 10.8026 29.7917C11.0287 30.0328 11.2175 30.3088 11.4401 30.5955C10.446 30.9306 9.45813 31.1886 8.53549 31.5944C7.49979 32.0499 6.51468 32.6241 5.52562 33.1787C5.2244 33.3476 4.96651 33.6061 4.71678 33.8519C3.09416 35.449 3.17063 37.3124 4.89353 38.8088C6.43461 40.1472 8.27619 40.8912 10.1895 41.4778C13.0561 42.3567 16.0049 42.7584 18.9926 42.9381C21.8644 43.1109 24.7243 43.0026 27.5711 42.6229C30.7895 42.1936 33.9461 41.5133 36.7997 39.8742C37.4732 39.4874 38.1315 39.0071 38.6545 38.4393C40.1015 36.8687 39.9925 35.2471 38.4281 33.7802C37.3471 32.7666 36.0516 32.1043 34.6822 31.5859C33.7346 31.2272 32.7631 30.9313 31.7665 30.5952C31.9851 30.3155 32.1714 30.0367 32.4022 29.8014C32.4947 29.7071 32.7002 29.6469 32.8282 29.678C33.2001 29.7685 33.5589 29.9129 33.956 30.0875C33.9878 30.205 33.9864 30.2711 33.9504 30.3418C33.81 30.3746 33.7043 30.4029 33.5985 30.4312C33.6504 30.5111 33.6837 30.6307 33.757 30.6648C34.9694 31.2295 36.1869 31.7833 37.4698 32.3701C37.5097 32.1989 37.5581 31.9917 37.6086 31.7448C37.6153 31.6524 37.6199 31.5997 37.6245 31.547ZM24.9956 44.7439C24.3816 44.7853 23.7676 44.8267 23.0992 44.8718C23.1212 45.3648 23.1422 45.8341 23.1652 46.3471C24.6693 46.2185 26.0945 46.0965 27.5358 45.9732C27.4574 45.4247 27.3943 44.9838 27.3315 44.5444C26.5524 44.6105 25.8206 44.6727 24.9956 44.7439ZM20.4126 45.9699C20.4126 45.6088 20.4126 45.2477 20.4126 44.8887C19.0072 44.7925 17.6309 44.6983 16.2149 44.6014C16.1605 45.0655 16.1074 45.5183 16.0462 46.0397C17.4431 46.1349 18.7742 46.2313 20.1065 46.3047C20.2033 46.31 20.3093 46.1484 20.4126 45.9699ZM32.8789 43.3879C31.9147 43.635 30.9504 43.8821 29.9576 44.1365C30.0614 44.5978 30.1577 45.0255 30.2693 45.5216C31.7129 45.105 33.0846 44.7092 34.4914 44.3033C34.3151 43.8206 34.174 43.4343 34.0254 43.0273C33.6519 43.1433 33.3034 43.2515 32.8789 43.3879ZM9.32251 43.6867C9.24765 43.9062 9.17279 44.1257 9.0674 44.4347C10.4961 44.8235 11.8872 45.2021 13.3181 45.5915C13.4153 45.0636 13.4953 44.6291 13.5727 44.209C12.1838 43.8584 10.849 43.5216 9.50569 43.1825C9.44841 43.332 9.39486 43.4718 9.32251 43.6867ZM3.63318 41.4149C4.50909 42.1619 5.4617 42.787 6.52831 43.2901C6.71647 42.8886 6.88163 42.5362 7.0063 42.2702C5.83461 41.4888 4.71917 40.745 3.58509 39.9887C3.37799 40.1852 3.12917 40.4214 2.87324 40.6643C3.1306 40.9196 3.35586 41.1432 3.63318 41.4149ZM40.3397 40.6632C40.4122 40.5634 40.4846 40.4636 40.5669 40.3502C40.2776 40.1117 40.0233 39.9021 39.8522 39.761C38.7048 40.5712 37.6113 41.3434 36.5081 42.1224C36.6661 42.429 36.8402 42.7668 37.0236 43.1228C38.2599 42.4823 39.3626 41.7178 40.3397 40.6632ZM3.30853 34.0793C3.19974 33.9801 3.09094 33.8809 2.95694 33.7588C1.83371 34.994 1.14599 36.3314 1.47425 38.0701C1.8182 37.9909 2.12013 37.9213 2.44172 37.8472C2.19904 36.5904 2.56887 35.5205 3.33998 34.5668C3.4635 34.4141 3.59072 34.2809 3.30853 34.0793ZM40.5604 35.7311C40.6845 36.327 40.8086 36.9228 40.9429 37.5672C41.1836 37.5956 41.4874 37.6315 41.823 37.6711C41.921 35.9209 41.1613 34.625 39.9736 33.4848C39.7761 33.7022 39.6115 33.8834 39.4965 34.0101C39.8639 34.5906 40.2012 35.1237 40.5604 35.7311Z" fill="white"/>
<path d="M119.224 16.884C119.114 16.7266 118.997 16.5716 118.997 16.4162C118.984 11.2064 118.987 5.99659 118.973 0.786807C118.971 0.330944 119.109 0.17746 119.58 0.18378C121.727 0.212621 123.876 0.188453 126.023 0.22284C126.689 0.233506 127.36 0.331914 128.017 0.453316C130.566 0.92431 131.371 3.88842 130.812 5.55626C130.631 6.09909 130.344 6.60698 130.091 7.1637C130.231 7.21964 130.43 7.29947 130.629 7.37902C132.464 8.11114 133.546 9.72637 133.588 11.6985C133.623 13.3139 133.188 14.7067 131.862 15.7249C130.717 16.604 129.363 16.8493 127.976 16.8676C125.075 16.9059 122.172 16.8837 119.224 16.884ZM125.673 9.34239C124.425 9.34239 123.176 9.34239 121.907 9.34239C121.907 10.8001 121.907 12.2155 121.907 13.6566C122.084 13.6839 122.247 13.7306 122.409 13.7304C123.732 13.7284 125.056 13.7437 126.377 13.6994C127.157 13.6733 127.956 13.6342 128.707 13.4471C129.735 13.1912 130.192 12.3244 130.049 11.1902C129.919 10.1553 129.232 9.50104 128.182 9.44016C127.38 9.39368 126.576 9.37395 125.673 9.34239ZM121.894 3.87871C121.894 4.42614 121.894 4.97356 121.894 5.55967C123.331 5.55967 124.716 5.56152 126.101 5.55907C127.139 5.55723 127.506 5.12376 127.362 4.07916C127.267 3.39179 127.066 3.17588 126.396 3.07442C126.149 3.03694 125.896 3.01831 125.646 3.01609C124.657 3.00733 123.669 3.00215 122.68 3.00783C121.753 3.01316 121.91 2.95655 121.894 3.87871Z" fill="white"/>
<path d="M116.447 12.9513C115.191 14.8426 113.456 16.0523 111.351 16.7036C109.898 17.1529 108.414 16.8634 106.977 16.5483C100.444 15.1168 98.7054 7.32716 102.544 2.94588C103.845 1.46146 105.505 0.553063 107.499 0.227538C111.393 -0.408291 114.807 0.968411 116.625 4.18054C118.265 7.07849 118.087 10.0352 116.447 12.9513ZM105.924 3.90719C105.606 4.177 105.25 4.41371 104.976 4.7221C103.473 6.40919 103.236 8.91657 104.356 11.0037C105.493 13.1222 107.452 14.1115 109.875 13.7907C112.321 13.4668 114.082 11.8152 114.509 9.44396C114.935 7.08112 113.734 4.48111 111.673 3.43932C109.708 2.44567 107.811 2.80171 105.924 3.90719Z" fill="white"/>
<path d="M99.8435 10.4772C100.472 13.0391 98.8966 15.8067 96.5213 16.3286C96.0675 16.4283 95.5901 16.4566 95.1236 16.4564C92.5079 16.4551 89.8922 16.4272 87.2764 16.4288C86.8215 16.4291 86.6405 16.2812 86.6573 15.8182C86.6835 15.1002 86.6642 14.3807 86.6642 13.5767C86.8628 13.5767 87.038 13.5746 87.2131 13.5771C89.56 13.6099 91.9068 13.6553 94.2538 13.6713C95.3232 13.6786 95.8696 13.2647 96.2163 12.2839C96.5366 11.3777 96.3515 10.4301 95.5841 9.89425C95.0384 9.5132 94.3829 9.20539 93.734 9.07563C92.8721 8.90324 91.9697 8.91056 91.0834 8.88654C89.793 8.85156 88.5014 8.84689 87.2104 8.85306C86.8707 8.85468 86.737 8.77742 86.7478 8.40828C86.7744 7.50803 86.7565 6.60647 86.7565 5.65393C86.974 5.64441 87.1515 5.63257 87.3291 5.6295C89.072 5.59938 90.815 5.57316 92.5578 5.53855C92.7742 5.53426 92.993 5.50302 93.2051 5.45793C93.9346 5.30282 94.297 4.81002 94.2278 4.08707C94.1595 3.37396 93.7517 3.01382 92.9775 3.00862C91.4345 2.99824 89.8915 2.99871 88.3485 2.99181C87.6604 2.98873 87.591 2.91931 87.5894 2.25296C87.5877 1.58764 87.589 0.922319 87.589 0.152012C89.3058 0.152012 90.9616 0.090834 92.6098 0.176563C93.4988 0.222809 94.4063 0.430038 95.2503 0.722969C97.1553 1.38413 98.3143 3.26863 97.9035 5.07691C97.7319 5.83196 97.2734 6.52202 96.9163 7.30524C98.3017 7.83545 99.3934 8.83586 99.8435 10.4772Z" fill="white"/>
<path d="M160.564 2.90486C159.981 2.90486 159.448 2.90486 158.888 2.90486C158.888 3.99305 158.888 5.03804 158.888 6.13495C159.085 6.13495 159.264 6.13495 159.443 6.13495C161.792 6.13495 164.14 6.14492 166.488 6.12542C166.894 6.12205 167.021 6.23976 166.997 6.63596C166.967 7.13648 166.971 7.6411 166.995 8.14228C167.017 8.59477 166.851 8.76078 166.384 8.75647C164.271 8.73695 162.157 8.74765 160.044 8.74842C159.842 8.74849 159.641 8.7589 159.44 8.75796C159.045 8.75613 158.821 8.88909 158.827 9.34419C158.846 10.7656 158.834 12.1873 158.834 13.6519C161.512 13.6519 164.189 13.6519 166.921 13.6519C166.921 14.5399 166.933 15.3864 166.902 16.2314C166.899 16.3085 166.623 16.4366 166.474 16.4374C165.586 16.4423 164.698 16.4053 163.81 16.4033C161.16 16.3974 158.51 16.4012 155.86 16.4012C155.676 16.4012 155.492 16.4012 155.273 16.4012C155.273 11.0126 155.273 5.64753 155.273 0.244141C159.066 0.244141 162.861 0.244141 166.683 0.244141C166.683 1.10929 166.683 1.97264 166.683 2.90487C164.659 2.90487 162.637 2.90487 160.564 2.90486Z" fill="white"/>
<path d="M64.1729 0.229703C65.1236 0.39358 66.0548 0.467088 66.9235 0.739206C68.526 1.24113 69.2994 2.47784 69.5959 4.0744C70.0395 6.46403 68.8745 8.76925 66.7842 9.60154C65.8255 9.98327 64.8155 9.96477 63.8128 9.98227C62.779 10.0003 61.7446 9.98628 60.668 9.98628C60.668 12.2192 60.668 14.3219 60.668 16.495C60.2987 16.495 59.9726 16.4963 59.6466 16.4947C58.9588 16.4914 58.2707 16.4712 57.5834 16.4883C57.1809 16.4984 57.0618 16.3291 57.0657 15.9478C57.0801 14.5243 57.073 13.1007 57.0713 11.6771C57.0671 8.05966 57.0733 4.44217 57.0431 0.824979C57.0387 0.309045 57.1964 0.154701 57.6853 0.16238C59.8318 0.196088 61.9785 0.208678 64.1729 0.229703ZM64.1952 7.21549C64.2449 7.20781 64.2948 7.20109 64.3442 7.1923C65.5997 6.96927 66.1823 6.2399 66.1313 4.95504C66.0891 3.89138 65.3703 3.16715 64.1688 3.08447C63.134 3.01326 62.093 3.03469 61.0552 3.0023C60.7355 2.99233 60.6565 3.14267 60.6587 3.42908C60.6673 4.53307 60.6761 5.63746 60.6541 6.74109C60.6459 7.15015 60.8068 7.25924 61.189 7.24972C62.1604 7.22552 63.1326 7.23252 64.1952 7.21549Z" fill="white"/>
<path d="M136.302 0.205256C136.788 0.205247 137.226 0.232632 137.66 0.197383C138.078 0.163389 138.175 0.345418 138.174 0.719825C138.171 2.52805 138.187 4.33629 138.195 6.14453C138.196 6.24269 138.195 6.34085 138.195 6.53026C139.329 6.53026 140.429 6.50424 141.528 6.5373C142.714 6.573 143.929 6.51891 145.076 6.76374C146.934 7.1605 148.166 8.42089 148.699 10.2263C149.222 11.999 148.829 13.6398 147.567 15.0246C146.8 15.8658 145.766 16.2238 144.683 16.2554C141.7 16.3425 138.713 16.3391 135.729 16.3809C135.355 16.3862 135.391 16.1555 135.392 15.9154C135.393 13.5872 135.393 11.2589 135.393 8.93069C135.393 6.23396 135.393 3.53723 135.393 0.840498C135.393 0.658048 135.393 0.475598 135.393 0.205256C135.7 0.205256 135.976 0.205256 136.302 0.205256ZM140.875 9.0275C139.993 9.0275 139.11 9.0275 138.22 9.0275C138.22 10.6061 138.22 12.1043 138.22 13.6512C138.894 13.6512 139.544 13.66 140.193 13.6492C141.23 13.6319 142.273 13.6587 143.304 13.5608C144.369 13.4596 145.172 12.5763 145.252 11.5829C145.341 10.4892 144.843 9.76164 143.636 9.45623C142.769 9.23688 141.863 9.17059 140.875 9.0275Z" fill="white"/>
<path d="M72.4037 14.0233C73.416 12.5848 74.3968 11.1682 75.4074 9.77318C75.7373 9.31774 75.691 8.95597 75.3923 8.50285C73.7178 5.96212 72.0678 3.40528 70.4138 0.851055C70.2992 0.674049 70.2209 0.473613 70.0918 0.216517C70.3191 0.201409 70.4757 0.182442 70.6323 0.181995C71.6055 0.179216 72.5791 0.195983 73.5517 0.173184C73.9539 0.163758 74.2026 0.31442 74.4141 0.646175C75.5556 2.43683 76.7124 4.21775 77.8646 6.00159C77.9546 6.14101 78.0498 6.27711 78.1826 6.47397C78.9169 5.45928 79.6326 4.4786 80.3391 3.49136C80.8939 2.71619 81.4433 1.93704 81.984 1.15207C82.517 0.378406 83.2294 0.0317878 84.1779 0.118485C84.7256 0.168541 85.2806 0.138341 85.8323 0.142682C86.0915 0.144721 86.3507 0.143031 86.7515 0.143031C86.5456 0.456554 86.427 0.647544 86.2984 0.831564C82.7724 5.8761 79.2434 10.9186 75.7227 15.9668C75.478 16.3178 75.196 16.4731 74.7592 16.4545C73.6206 16.4059 72.4802 16.3975 71.3407 16.3688C71.2297 16.366 71.1194 16.3335 70.8399 16.2863C71.3919 15.4879 71.8878 14.7707 72.4037 14.0233Z" fill="white"/>
<path d="M53.4242 2.95254C52.2017 2.95255 51.029 2.95255 49.8036 2.95255C49.8036 7.4736 49.8036 11.9362 49.8036 16.4419C48.5748 16.4419 47.3983 16.4419 46.1953 16.4419C46.1953 11.0697 46.1953 5.70211 46.1953 0.302734C49.5359 0.302734 52.8632 0.302734 56.2444 0.302734C56.2444 1.08129 56.2473 1.84671 56.2431 2.61209C56.2412 2.96034 55.9707 2.94824 55.7391 2.95051C54.9842 2.95793 54.2291 2.95282 53.4242 2.95254Z" fill="white"/>
<path d="M149.821 5.32966C149.821 3.7892 149.835 2.29878 149.813 0.8089C149.805 0.320324 149.973 0.167759 150.462 0.191873C151.281 0.232375 152.105 0.212744 152.926 0.199248C153.271 0.193594 153.41 0.325843 153.407 0.670885C153.381 4.30298 153.361 7.93511 153.343 11.5672C153.337 12.9904 153.33 14.4139 153.349 15.8368C153.354 16.249 153.224 16.4042 152.802 16.3944C151.998 16.3756 151.191 16.3775 150.388 16.4182C149.88 16.4439 149.814 16.1951 149.815 15.7779C149.825 12.3119 149.821 8.84591 149.821 5.32966Z" fill="white"/>
<path d="M33.9844 30.337C33.9858 30.2709 33.9871 30.2047 33.9875 30.1055C35.1845 30.5464 36.3824 31.0204 37.6021 31.5206C37.6192 31.5994 37.6147 31.6521 37.573 31.7348C36.3521 31.2889 35.1682 30.8129 33.9844 30.337Z" fill="white"/>
<path d="M8.15466 30.418C8.19808 30.4637 8.20361 30.5197 8.18114 30.6368C7.37081 31.0275 6.58848 31.3573 5.80615 31.687C5.77833 31.6338 5.7505 31.5805 5.70898 31.5003C6.50244 31.125 7.3096 30.7767 8.15466 30.418Z" fill="white"/>
</svg>
