<svg width="70" height="70" viewBox="0 0 70 70" fill="none" xmlns="http://www.w3.org/2000/svg">
<g clip-path="url(#clip0_831_2269)">
<mask id="mask0_831_2269" style="mask-type:luminance" maskUnits="userSpaceOnUse" x="0" y="0" width="70" height="70">
<path d="M70 0H0V70H70V0Z" fill="white"/>
</mask>
<g mask="url(#mask0_831_2269)">
<path d="M70 0H0V70H70V0Z" fill="#EE151F"/>
</g>
<mask id="mask1_831_2269" style="mask-type:luminance" maskUnits="userSpaceOnUse" x="0" y="0" width="70" height="70">
<path d="M70 0H0V70H70V0Z" fill="white"/>
</mask>
<g mask="url(#mask1_831_2269)">
<path d="M51.0085 61.1863C50.8253 61.1863 50.5734 61.1863 50.367 60.9789C50.1585 60.7715 50.1585 60.5206 50.1585 60.3364V54.1356C50.1585 53.8501 50.1635 53.7266 50.2617 53.5424C50.3783 53.331 50.608 53.2056 50.8791 53.2056C51.1493 53.2056 51.3789 53.331 51.4955 53.5404C51.5938 53.7266 51.5987 53.8491 51.5987 54.1356V59.8751H54.1348C54.3961 59.8751 54.5295 59.8874 54.6752 59.9669C54.8702 60.0795 54.9848 60.2899 54.9848 60.5309C54.9848 60.771 54.8702 60.9804 54.6771 61.0925C54.5295 61.1735 54.3966 61.1858 54.1348 61.1858L51.0085 61.1863ZM10.6478 61.2288C10.3772 61.2288 10.147 61.1034 10.032 60.893C9.93317 60.7078 9.92922 60.5843 9.92922 60.2988V54.5593H8.62585C8.37396 54.5593 8.23765 54.5504 8.08553 54.4675C7.89044 54.3553 7.77734 54.1454 7.77734 53.9039C7.77734 53.6629 7.89045 53.4535 8.08257 53.3424C8.23172 53.2614 8.36507 53.248 8.62585 53.248H12.6713C12.9316 53.248 13.0654 53.2614 13.2106 53.3409C13.4052 53.4535 13.5198 53.6629 13.5198 53.9044C13.5198 54.1454 13.4052 54.3558 13.2136 54.466C13.0654 54.547 12.9331 54.5593 12.6713 54.5593H11.3679V60.2988C11.3679 60.5843 11.364 60.7087 11.2652 60.892C11.1486 61.1034 10.9185 61.2288 10.6478 61.2288ZM15.3872 61.2288C15.1165 61.2288 14.8849 61.1034 14.7698 60.893C14.6711 60.7078 14.6671 60.5843 14.6671 60.2988V54.1356C14.6671 53.8501 14.6711 53.7276 14.7688 53.5424C14.8859 53.331 15.1165 53.2056 15.3872 53.2056C15.6569 53.2056 15.887 53.331 16.0026 53.5404C16.1024 53.7266 16.1063 53.8501 16.1063 54.1356V60.2988C16.1063 60.5843 16.1024 60.7087 16.0036 60.892C15.888 61.1034 15.6569 61.2288 15.3872 61.2288ZM23.0781 61.2288C22.6859 61.2288 22.517 60.928 22.3812 60.6845L20.5661 57.4866L19.4198 58.8651V60.2983C19.4198 60.5838 19.4159 60.7073 19.3171 60.8915C19.2015 61.1029 18.9704 61.2283 18.6997 61.2283C18.4301 61.2283 18.1994 61.1029 18.0833 60.8925C17.9846 60.7073 17.9806 60.5838 17.9806 60.2983V54.1351C17.9806 53.8496 17.9846 53.7261 18.0824 53.5419C18.1994 53.3305 18.4301 53.2051 18.6997 53.2051C18.9704 53.2051 19.2005 53.3305 19.3171 53.5399C19.4159 53.7261 19.4198 53.8496 19.4198 54.1351V56.8243L22.073 53.6056C22.2617 53.3779 22.4286 53.2051 22.7131 53.2051C22.878 53.2051 23.0336 53.2629 23.1625 53.373C23.3294 53.5128 23.4218 53.699 23.4218 53.8985C23.4218 54.104 23.3319 54.2457 23.1314 54.4867L21.5628 56.3803L23.6119 59.9822C23.7473 60.2188 23.807 60.3413 23.8135 60.5245C23.8209 60.7744 23.6949 60.9878 23.4608 61.1286C23.325 61.2125 23.1778 61.2288 23.0781 61.2288ZM30.199 61.2288C29.8063 61.2288 29.6374 60.928 29.5016 60.6845L27.6865 57.4866L26.5402 58.8651V60.2983C26.5402 60.5838 26.5373 60.7073 26.4385 60.8915C26.3219 61.1029 26.0908 61.2283 25.8211 61.2283C25.5505 61.2283 25.3188 61.1029 25.2038 60.8925C25.105 60.7073 25.101 60.5838 25.101 60.2983V54.1351C25.101 53.8496 25.105 53.7261 25.2038 53.5419C25.3198 53.3305 25.5505 53.2051 25.8211 53.2051C26.0908 53.2051 26.3209 53.3305 26.4375 53.5399C26.5373 53.7261 26.5402 53.8496 26.5402 54.1351V56.8243L29.1934 53.6056C29.3831 53.3779 29.55 53.2051 29.8335 53.2051C29.9974 53.2051 30.153 53.2629 30.2839 53.372C30.4508 53.5138 30.5412 53.7 30.5412 53.8985C30.5412 54.104 30.4523 54.2457 30.2518 54.4867L28.6832 56.3803L30.7338 59.9822C30.8677 60.2188 30.9274 60.3413 30.9339 60.5245C30.9413 60.7734 30.8168 60.9878 30.5812 61.1286C30.4469 61.2125 30.2987 61.2288 30.199 61.2288ZM42.645 56.6914C43.3616 56.6914 43.8076 56.2874 43.8076 55.636C43.8076 54.9722 43.3621 54.5593 42.645 54.5593H41.0621V56.691H42.645V56.6914ZM44.5484 61.2288C44.1568 61.2288 43.9879 60.928 43.8521 60.6845L42.2953 57.9593H41.0626V60.2983C41.0626 60.5838 41.0586 60.7073 40.9603 60.8915C40.8438 61.1029 40.6141 61.2283 40.343 61.2283C40.0718 61.2283 39.8412 61.1029 39.7266 60.8925C39.6273 60.7063 39.6224 60.5838 39.6224 60.2983V54.0975C39.6224 53.9143 39.6224 53.6624 39.8308 53.456C40.0382 53.2476 40.2891 53.2476 40.4724 53.2476H42.7314C44.2363 53.2476 45.2473 54.2027 45.2473 55.6246C45.2473 56.6337 44.709 57.412 43.7972 57.738L45.0833 59.9827C45.2181 60.2193 45.2784 60.3418 45.2848 60.525C45.2917 60.7739 45.1663 60.9883 44.9317 61.129C44.7964 61.2125 44.6487 61.2288 44.5484 61.2288ZM47.5656 61.2288C47.2954 61.2288 47.0638 61.1034 46.9482 60.893C46.85 60.7087 46.846 60.5843 46.846 60.2988V54.1356C46.846 53.8501 46.85 53.7266 46.9482 53.5424C47.0648 53.331 47.2954 53.2056 47.5656 53.2056C47.8358 53.2056 48.0664 53.331 48.182 53.5404C48.2813 53.7276 48.2852 53.8501 48.2852 54.1356V60.2988C48.2852 60.5843 48.2813 60.7078 48.183 60.892C48.0674 61.1034 47.8368 61.2288 47.5656 61.2288ZM60.0008 58.3806L58.9745 55.5733L57.9462 58.3806H60.0008ZM61.5121 61.2288C61.3624 61.2288 61.2226 61.1794 61.1061 61.0841C60.9683 60.973 60.9095 60.847 60.8117 60.5843L60.4635 59.6474H57.4829L57.1337 60.5843C57.0374 60.8465 56.9791 60.973 56.8384 61.0861C56.7248 61.1794 56.5835 61.2288 56.4334 61.2288C56.2339 61.2288 56.0368 61.1488 55.9089 61.0135C55.6135 60.7097 55.74 60.3709 55.8422 60.0998L58.1872 53.8555C58.2702 53.6269 58.3378 53.5143 58.4534 53.4051C58.5952 53.2693 58.7611 53.2056 58.9745 53.2056C59.1849 53.2056 59.3508 53.2693 59.4945 53.4051C59.6101 53.5143 59.6768 53.6278 59.7598 53.8565L62.1057 60.0998C62.207 60.3709 62.3344 60.7092 62.0361 61.0155C61.9087 61.1488 61.7131 61.2288 61.5121 61.2288ZM34.9857 61.251C33.3154 61.251 32.1034 60.079 32.1034 58.465V54.1356C32.1034 53.8501 32.1073 53.7266 32.2061 53.5424C32.3227 53.331 32.5528 53.2056 32.8235 53.2056C33.0932 53.2056 33.3243 53.331 33.4399 53.5404C33.5396 53.7266 33.5436 53.8501 33.5436 54.1356V58.4117C33.5436 59.353 34.0957 59.9398 34.9857 59.9398C35.8742 59.9398 36.4279 59.353 36.4279 58.4117V54.1356C36.4279 53.8501 36.4318 53.7276 36.5301 53.5424C36.6467 53.331 36.8783 53.2056 37.1475 53.2056C37.4177 53.2056 37.6493 53.331 37.7639 53.5404C37.8631 53.7266 37.8671 53.8501 37.8671 54.1356V58.465C37.8671 60.079 36.6556 61.251 34.9857 61.251Z" fill="white"/>
</g>
<mask id="mask2_831_2269" style="mask-type:luminance" maskUnits="userSpaceOnUse" x="0" y="0" width="70" height="70">
<path d="M70 0H0V70H70V0Z" fill="white"/>
</mask>
<g mask="url(#mask2_831_2269)">
<path d="M49.1591 41.2106L48.478 44.7305C48.3432 45.4328 47.6463 46.0067 46.9327 46.0067H23.0674C22.3532 46.0067 21.6564 45.4328 21.5215 44.7305L20.7353 40.6648M20.7353 40.6648L16.959 21.3908C18.78 20.5976 20.8834 21.8575 21.1314 23.8987C21.2084 24.5344 21.121 25.1488 20.9062 25.7084C22.8817 25.5473 24.6558 26.9777 24.8988 28.968C25.1457 31.0073 23.6976 32.8643 21.6574 33.1157C20.9975 33.1947 20.6167 33.1024 20.0483 32.8638C20.0522 33.0614 20.071 33.2575 20.0937 33.455C20.5713 37.3276 23.1193 38.9821 27.023 38.9821C30.4407 38.9821 34.0579 36.8283 34.0579 32.9285C34.0579 32.6633 34.053 32.402 34.0214 32.1403C33.4198 32.5611 32.6686 32.8135 31.875 32.8135C29.8223 32.8135 28.153 31.1456 28.153 29.0861C28.153 27.0833 29.7344 25.4476 31.7189 25.3646C31.4359 24.8371 31.2754 24.2371 31.2754 23.5994C31.2754 21.5419 32.9427 19.873 34.9973 19.873C37.0563 19.873 38.7237 21.5419 38.7237 23.5994C38.7237 24.2371 38.5588 24.8371 38.2743 25.3646C40.2597 25.4476 41.8456 27.0833 41.8456 29.0861C41.8456 31.1456 40.1758 32.8135 38.1192 32.8135C37.3265 32.8135 36.5872 32.5606 35.9826 32.1353C35.9545 32.3956 35.9411 32.6628 35.9411 32.9285C35.9411 36.8283 39.3984 38.9821 43.0003 38.9821C46.902 38.9821 49.4278 37.2911 49.9049 33.4234C49.9271 33.2303 49.9513 33.0377 49.9607 32.8495C49.3907 33.0752 49.0105 33.1671 48.3679 33.0841C46.3237 32.8362 44.8761 30.9752 45.123 28.9359C45.371 26.946 47.1411 25.5152 49.1157 25.6763C48.8993 25.1216 48.8129 24.5033 48.8909 23.8696C49.1428 21.8254 51.0226 20.7067 53.0396 21.3616L49.1581 41.2106" fill="white"/>
</g>
</g>
<defs>
<clipPath id="clip0_831_2269">
<rect width="70" height="70" fill="white"/>
</clipPath>
</defs>
</svg>
