<svg width="137" height="30" viewBox="0 0 137 30" fill="none" xmlns="http://www.w3.org/2000/svg">
<path d="M83.4093 0C71.8761 0 62.5293 6.70738 62.5293 14.9908C62.5293 23.2743 71.8761 29.9817 83.4093 29.9817C94.9425 29.9817 104.289 23.2743 104.289 14.9908C104.289 6.70738 94.9425 0 83.4093 0ZM83.4093 22.9994C75.4472 22.9994 69.4893 18.7844 69.4893 15.0092C69.4893 11.234 75.4472 7.01893 83.4093 7.01893C91.3714 7.01893 97.3293 11.234 97.3293 15.0092C97.3293 18.7844 91.3896 22.9994 83.4093 22.9994Z" fill="#005CFF"/>
<path d="M14.9221 0C6.68671 0 0.0182199 6.70738 0 14.9908C0 23.2743 6.66849 29.9817 14.9039 30C23.1393 30 29.8078 23.2926 29.826 15.0092C29.826 6.7074 23.1575 0 14.9221 0ZM22.866 14.9908C22.866 19.4074 19.3131 22.9811 14.9221 22.9994C10.5311 22.9994 6.96001 19.4258 6.96001 15.0092C6.96001 10.5926 10.5129 7.0006 14.9039 7.0006C19.2949 7.0006 22.866 10.5742 22.866 14.9908Z" fill="#005CFF"/>
<path d="M57.082 22.321H45.2573L60.3433 2.29045C60.8353 1.63071 60.3798 0.677734 59.5417 0.677734H37.86C35.71 0.677734 33.8698 2.65697 34.3253 4.89276C34.6533 6.54212 36.1838 7.66002 37.86 7.66002H47.5712L32.4669 27.7089C31.975 28.3686 32.4305 29.3033 33.2504 29.3033H56.9544C58.6306 29.3033 60.1611 28.1854 60.4891 26.536C60.9446 24.2819 59.2319 22.321 57.082 22.321Z" fill="#005CFF"/>
<path d="M136.666 4.17851V28.3141C136.666 28.5341 136.593 28.754 136.448 28.9372C136.102 29.3771 135.464 29.4504 135.027 29.1022L116.224 14.093V25.8218C116.224 27.801 114.602 29.3771 112.634 29.3221C110.739 29.2671 109.264 27.6361 109.264 25.7302V1.68615C109.264 1.44791 109.337 1.228 109.482 1.04474C109.828 0.623233 110.466 0.549942 110.885 0.89814L129.688 15.9073V4.27014C129.688 2.36422 131.164 0.751517 133.041 0.678212C135.027 0.604907 136.666 2.19928 136.666 4.17851Z" fill="#005CFF"/>
</svg>
