<svg width="103" height="80" viewBox="0 0 103 80" fill="none" xmlns="http://www.w3.org/2000/svg">
<g clip-path="url(#clip0_831_2212)">
<mask id="mask0_831_2212" style="mask-type:luminance" maskUnits="userSpaceOnUse" x="0" y="0" width="103" height="80">
<path d="M102.857 0H0V80H102.857V0Z" fill="white"/>
</mask>
<g mask="url(#mask0_831_2212)">
<path d="M51.2277 63.8913H44.04L48.8117 68.5935H51.2277C51.9084 68.5935 52.4618 69.1472 52.4618 69.8276C52.4618 70.5079 51.9081 71.0607 51.2277 71.0607H48.8117V68.5935H44.1187V78.0092H48.8117V75.754H51.2277C54.4967 75.754 57.1554 73.0953 57.1554 69.8276C57.1554 66.5597 54.4967 63.8913 51.2277 63.8913ZM66.0127 63.5762C61.828 63.5762 58.4224 66.9817 58.4224 71.1665C58.4224 75.3512 61.828 78.7567 66.0127 78.7567C70.1974 78.7567 73.603 75.3512 73.603 71.1665C73.603 66.9817 70.1974 63.5762 66.0127 63.5762ZM66.0127 74.0633C64.4131 74.0633 63.116 72.7616 63.116 71.1665C63.116 69.5715 64.4131 68.2697 66.0127 68.2697C67.6124 68.2697 68.9095 69.5715 68.9095 71.1665C68.9095 72.7616 67.6124 74.0633 66.0127 74.0633ZM41.6158 63.8913V78.0092H36.9263V67.8452H32.1251V78.0092H27.4355V63.8913H41.6158Z" fill="#FDC300"/>
<path d="M83.7817 45.7752V60.0035H78.875V54.697H74.1669V60.0035H69.2575V45.7752H74.1669V50.679H78.875V45.7752H83.7817ZM4.23801 45.7741L4.05179 51.3831C4.02601 52.2798 3.96585 53.0991 3.87418 53.8181C3.78252 54.52 3.61636 55.0815 3.37572 55.4882C3.07779 55.9895 2.58221 56.15 1.86031 55.9952L1.42773 55.9037V59.9658L1.55092 59.9972C1.92905 60.0918 2.29288 60.1577 2.63091 60.2007C2.96608 60.2408 3.28979 60.2608 3.58772 60.2608C4.57316 60.2608 5.39533 60.0345 6.02556 59.5934C6.65293 59.1522 7.14281 58.5935 7.48656 57.7771C7.82461 56.9751 8.06523 56.0068 8.20561 54.8981C8.34598 53.7981 8.43765 52.5577 8.47775 51.2141L8.52072 49.7445H11.4055V60.0001H16.3499V45.7741H4.23801ZM23.4183 56.1528V54.5262H30.0577V51.0491H23.4183V49.6214H30.8722V45.7752H18.5016V59.999H31.1306V56.1528H23.4183ZM46.3166 45.775L42.0677 50.5372L37.8189 45.775H32.6349V60.0004H37.5485V53.269H37.5804L37.5942 53.2827L42.054 57.66L46.5687 53.2231L46.5733 53.2322V53.292L46.587 60.0004H51.496V45.775H46.3166ZM85.4295 52.499V60.0004H90.1093V52.499C90.1093 51.1835 91.2047 50.111 92.5202 50.111C93.8356 50.111 94.9127 51.1835 94.9127 52.499V55.2857H90.1643L94.8119 60.0004H99.6337V52.499C99.6337 48.5801 96.439 45.3945 92.5202 45.3945C88.6059 45.3945 85.4295 48.5801 85.4295 52.499ZM60.2597 45.3945C56.3407 45.3945 53.146 48.5801 53.146 52.499V60.0004H57.9679L62.6156 55.2857H57.8672V52.499C57.8672 51.1835 58.9396 50.111 60.2597 50.111C61.5797 50.111 62.6706 51.1835 62.6706 52.499V60.0004H67.3504V52.499C67.3504 48.5801 64.174 45.3945 60.2597 45.3945Z" fill="#21282B"/>
<path d="M57.8544 7.25586L50.5176 14.5104L57.2849 21.2017V29.5524H43.75V38.4911H67.696V16.987L57.8544 7.25586Z" fill="#BF8900"/>
<path d="M50.5186 0L33.3398 16.9856V38.4894H43.7513V29.5507V21.2001L50.5186 14.5089L57.8553 7.25456L50.5186 0Z" fill="#FDC300"/>
<path d="M50.5156 14.5104L57.8523 7.25586L51.8746 15.8543L50.5156 14.5104Z" fill="#815F00"/>
<path d="M43.75 29.5508V38.4895L45.6951 29.5508H43.75Z" fill="#815F00"/>
</g>
</g>
<defs>
<clipPath id="clip0_831_2212">
<rect width="102.857" height="80" fill="white"/>
</clipPath>
</defs>
</svg>
