<svg width="215" height="44" viewBox="0 0 215 44" fill="none" xmlns="http://www.w3.org/2000/svg">
<g clip-path="url(#clip0_831_2306)">
<mask id="mask0_831_2306" style="mask-type:luminance" maskUnits="userSpaceOnUse" x="0" y="0" width="215" height="44">
<path d="M215 0H0V43.8106H215V0Z" fill="white"/>
</mask>
<g mask="url(#mask0_831_2306)">
<path d="M210.252 0H177.039C174.417 0 172.291 2.16474 172.291 4.83509V38.6563C172.291 41.3266 174.417 43.4913 177.039 43.4913H210.252C212.874 43.4913 215 41.3266 215 38.6563V4.83509C215 2.16474 212.874 0 210.252 0Z" fill="#1257A1"/>
<path d="M3.12003 43.4823C2.70459 43.501 2.28976 43.4332 1.90095 43.283C1.51215 43.1328 1.15754 42.9034 0.858847 42.6087C0.569662 42.3044 0.34444 41.9434 0.19694 41.5475C0.0494417 41.1515 -0.0172351 40.7292 0.000984501 40.3061V24.2656H4.75759V39.6706H21.4194V43.4823H3.12003Z" fill="#1257A1"/>
<path d="M33.1475 25.8919C33.4851 25.4015 33.932 24.9994 34.4514 24.7188C34.971 24.4381 35.5484 24.2869 36.1365 24.2773C36.7392 24.2763 37.3331 24.4262 37.8655 24.714C38.3929 24.9887 38.8442 25.3938 39.1782 25.8919L50.9785 43.4939H45.5984L43.2852 39.9999H28.9366L26.6754 43.4939H21.3984L33.1475 25.8919ZM31.4319 36.1618H40.7638L36.0583 29.0415L31.4319 36.1618Z" fill="#1257A1"/>
<path d="M75.5705 26.573C75.57 26.9281 75.4853 27.2777 75.3238 27.5922C75.1705 27.9051 74.9425 28.1735 74.6607 28.373L58.7795 39.6753H75.8307V43.487H53.4504C53.1531 43.5012 52.8563 43.4521 52.5787 43.3427C52.3012 43.2333 52.0491 43.0661 51.8388 42.8518C51.6283 42.6375 51.4641 42.3807 51.3569 42.0982C51.2495 41.8155 51.2012 41.5131 51.2153 41.2105C51.2165 40.8514 51.301 40.4978 51.462 40.1784C51.6125 39.8601 51.8408 39.5866 52.1252 39.3843L68.0072 28.082H51.2413V24.2703H73.3353C73.6341 24.2501 73.9335 24.2951 74.2137 24.4022C74.4939 24.5095 74.7485 24.6764 74.9602 24.8919C75.1718 25.1075 75.3358 25.3667 75.441 25.6519C75.5464 25.9373 75.5904 26.2424 75.5705 26.5464V26.573Z" fill="#1257A1"/>
<path d="M104.244 35.8971C104.281 37.0238 104.123 38.1484 103.776 39.219C103.453 40.0732 102.915 40.8262 102.217 41.4029C101.732 41.8316 101.189 42.188 100.605 42.4614C99.9056 42.7877 99.1734 43.0362 98.4214 43.2029C97.4829 43.414 96.5323 43.5643 95.5751 43.6529C94.5101 43.7585 93.3188 43.8113 92.0012 43.8114H90.676C88.52 43.8617 86.3656 43.6576 84.2558 43.2029C82.8692 42.9151 81.5689 42.2984 80.4603 41.4029C79.7618 40.8262 79.2242 40.0732 78.9007 39.219C78.5538 38.1485 78.3954 37.0239 78.4332 35.8971V24.2773H83.1638V35.2621C83.1529 35.847 83.2229 36.4305 83.3719 36.9955C83.5072 37.4762 83.7676 37.9106 84.1256 38.2527C84.8123 38.835 85.6447 39.2109 86.5294 39.3383C87.9684 39.5794 89.4261 39.6857 90.8841 39.6557H91.845C93.303 39.6856 94.7606 39.5794 96.1996 39.3383C97.0844 39.2108 97.9167 38.8349 98.6034 38.2527C98.9612 37.9103 99.2216 37.4759 99.3572 36.9955C99.5062 36.4305 99.5762 35.847 99.5653 35.2621V24.2773H104.244L104.244 35.8971Z" fill="#1257A1"/>
<path d="M116.153 37.2401C115.81 37.0212 115.539 36.7033 115.373 36.3268C115.238 36.0195 115.206 35.675 115.283 35.3473C115.369 35.0265 115.568 34.749 115.841 34.5666C116.18 34.3419 116.58 34.231 116.985 34.249H123.561C124.254 34.2677 124.948 34.2054 125.628 34.0635C126.072 33.9677 126.482 33.7478 126.811 33.4285C127.314 32.7865 127.557 31.971 127.485 31.1519C127.554 30.3414 127.312 29.5352 126.811 28.9023C126.482 28.5833 126.072 28.3633 125.628 28.2668C124.948 28.1256 124.254 28.0635 123.561 28.0818H112.02V43.4868H107.264V24.2702H124.03C125.371 24.2357 126.71 24.3961 128.007 24.7467C128.949 25.0108 129.821 25.4905 130.554 26.1492C131.169 26.7283 131.629 27.4569 131.891 28.2668C132.19 29.1977 132.335 30.1727 132.32 31.152C132.338 32.1206 132.185 33.0846 131.866 33.9978C131.575 34.7987 131.129 35.5321 130.554 36.1546C129.496 37.2844 127.39 37.8492 124.237 37.8487H123.952L132.321 43.4869H125.354L116.153 37.2401Z" fill="#1257A1"/>
<path d="M140.158 43.4939H135.402V24.2773H140.158V43.4939Z" fill="#1257A1"/>
<path d="M142.5 24.2773H167.427V28.0889H157.342V43.4939H152.585V28.0889H142.5V24.2773Z" fill="#1257A1"/>
<path d="M183.243 38.5443H182.11V34.9676L180.396 38.5443H180.002L178.287 34.9758V38.5443H177.154V32.5547H178.287L180.199 36.531L182.11 32.5547H183.242L183.243 38.5443Z" fill="white"/>
<path d="M185.523 33.6862V34.9841H187.77V36.1155H185.523V37.4128H188.263V38.5443H184.406V32.5547H188.263V33.6862H185.523Z" fill="white"/>
<path d="M193.936 36.5646C193.926 36.9876 193.788 37.3973 193.541 37.7374C193.299 38.0787 192.953 38.3299 192.558 38.4527C192.363 38.5129 192.161 38.5437 191.958 38.5443H189.258V32.5547H193.245V33.6862H190.374V34.5927H191.958C192.265 34.5907 192.568 34.6618 192.843 34.8006C193.118 34.9392 193.357 35.1415 193.541 35.3913C193.795 35.7279 193.934 36.1401 193.936 36.5646ZM192.622 36.0157C192.543 35.9082 192.442 35.8196 192.326 35.7563C192.21 35.693 192.081 35.6564 191.949 35.6492H190.374V37.4795H191.949C192.18 37.4665 192.396 37.3646 192.555 37.1945C192.713 37.0245 192.802 36.7991 192.804 36.5646C192.806 36.366 192.743 36.1723 192.622 36.0157Z" fill="white"/>
<path d="M195.72 33.6862V34.9841H197.967V36.1155H195.72V37.4128H198.46V38.5443H194.604V32.5547H198.46V33.6862H195.72Z" fill="white"/>
<path d="M204.299 38.5443H203.184V33.6195H201.189L200.796 36.9636C200.656 38.1618 200.074 38.7024 198.967 38.5443V37.5462C199.075 37.5513 199.182 37.5335 199.283 37.4941C199.384 37.4546 199.476 37.3942 199.554 37.3169C199.63 37.2395 199.69 37.1467 199.731 37.0444C199.771 36.942 199.79 36.8323 199.786 36.7222L200.286 32.5547H204.299V38.5443Z" fill="white"/>
<path d="M210.137 36.5646C210.127 36.9876 209.989 37.3973 209.742 37.7374C209.5 38.0787 209.154 38.3299 208.759 38.4527C208.564 38.5129 208.362 38.5437 208.159 38.5443H205.459V32.5547H206.576V34.5927H208.159C208.467 34.5907 208.77 34.6618 209.044 34.8006C209.319 34.9392 209.558 35.1415 209.742 35.3913C209.997 35.7279 210.136 36.1401 210.137 36.5646ZM208.824 36.0157C208.745 35.9082 208.644 35.8196 208.527 35.7563C208.411 35.693 208.282 35.6564 208.152 35.6492H206.576V37.4795H208.152C208.381 37.4665 208.597 37.3646 208.756 37.1945C208.914 37.0245 209.004 36.7991 209.005 36.5646C209.007 36.366 208.944 36.1723 208.824 36.0157Z" fill="white"/>
</g>
</g>
<defs>
<clipPath id="clip0_831_2306">
<rect width="215" height="44" fill="white"/>
</clipPath>
</defs>
</svg>
