<svg width="155" height="24" viewBox="0 0 155 24" fill="none" xmlns="http://www.w3.org/2000/svg">
<g clip-path="url(#clip0_831_2296)">
<path d="M24.9812 9.00977H0V15.0305H24.9812V9.00977Z" fill="#EF7622"/>
<path d="M24.9812 18.0215H0V24.0422H24.9812V18.0215Z" fill="#EF4F24"/>
<path d="M24.9812 0H0V6.02076H24.9812V0Z" fill="#FBAE18"/>
<path d="M134.758 19.7227L148.267 4.27631H134.758V0.0410156H155V4.27631L141.325 19.7227H155V23.9995H134.758V19.7227Z" fill="#231F20"/>
<path d="M66.0079 23.9995L55.5332 0.0410156H61.2693L68.4603 17.8957L75.859 0.0410156H81.2626L71.2036 23.9995H66.0079Z" fill="#231F20"/>
<path d="M119.71 4.8161L116.219 14.0341H123.368L119.71 4.8161ZM107.074 23.9995L117.216 0.0410156H122.578L132.804 24.041H127.192L124.989 18.3109H114.556L112.436 24.041H107.074V23.9995Z" fill="#221F1F"/>
<path d="M88.2033 4.31783V10.3386H94.3967C96.0593 10.3386 97.2232 10.0895 97.8882 9.63271C98.5533 9.17596 98.8858 8.38704 98.8858 7.30745C98.8858 6.18634 98.5533 5.43894 97.9298 5.02372C97.3894 4.65001 96.5165 4.40088 95.228 4.35935H88.2033M105.121 23.9995H99.4677L98.1376 21.6327L96.8075 19.2659L94.1473 14.5739H88.2033V23.9995H83.1738V6.02025V4.31783V0.0410156H92.6925C92.8172 0.0410156 92.9834 0.0410156 93.1081 0.0410156H95.6021C96.3087 0.0410156 97.0153 0.0825381 97.6388 0.165583C98.2623 0.248628 98.8442 0.331673 99.3846 0.497763C99.925 0.622331 100.382 0.829943 100.839 1.03756C101.297 1.24517 101.671 1.4943 102.003 1.78496C102.336 2.07562 102.627 2.4078 102.876 2.7815C103.126 3.1552 103.333 3.57043 103.5 4.02717C103.666 4.48392 103.791 4.98219 103.874 5.52198C103.957 6.06178 103.998 6.64309 103.998 7.26593C103.998 7.72268 103.957 8.17942 103.915 8.59465C103.874 9.00987 103.791 9.4251 103.707 9.7988C103.624 10.1725 103.5 10.5462 103.333 10.8784C103.167 11.2106 103.001 11.5427 102.793 11.8334C102.585 12.1241 102.336 12.3732 102.086 12.6223C101.837 12.8715 101.546 13.0791 101.255 13.2452C100.964 13.4113 100.632 13.5773 100.299 13.7434C99.9665 13.868 99.5924 13.9926 99.1768 14.0756L105.121 23.9995Z" fill="#231F20"/>
<path d="M53.5773 4.27682H39.6111V9.75779H53.5773V14.0346H39.6111V19.7647H53.5773V24H33.875V0L53.5773 0.0415225V4.27682Z" fill="#231F20"/>
</g>
<defs>
<clipPath id="clip0_831_2296">
<rect width="155" height="24" fill="white"/>
</clipPath>
</defs>
</svg>
