<svg width="192" height="50" viewBox="0 0 192 50" fill="none" xmlns="http://www.w3.org/2000/svg">
<path d="M21.7271 1.96484H21.7203C19.907 1.96734 18.433 3.39984 18.4356 5.15818C18.439 6.90901 19.9156 8.33568 21.7262 8.33568C23.5429 8.33235 25.0222 6.89984 25.0195 5.14401C25.0161 3.39151 23.5386 1.96484 21.7271 1.96484Z" fill="#00B9BF"/>
<path d="M21.7271 35.8047H21.7203C19.907 35.8072 18.433 37.2389 18.4356 38.9972C18.439 40.7489 19.9156 42.1756 21.7262 42.1756C23.5429 42.1722 25.0222 40.7406 25.0195 38.9831C25.0161 37.2314 23.5386 35.8047 21.7271 35.8047Z" fill="#00B9BF"/>
<path d="M34.1483 5.95312H34.138C31.6971 5.9573 29.7125 7.8848 29.7168 10.2515C29.7211 12.6131 31.7083 14.5331 34.1466 14.5331C36.5953 14.529 38.5851 12.6015 38.5815 10.2348C38.5781 7.87396 36.5875 5.95312 34.1483 5.95312Z" fill="#00B9BF"/>
<path d="M34.1483 29.6133H34.138C31.6971 29.6167 29.7125 31.5458 29.7168 33.9125C29.7211 36.2733 31.7083 38.1933 34.1466 38.1933C36.5953 38.19 38.5851 36.2608 38.5815 33.895C38.5781 31.5342 36.5875 29.6133 34.1483 29.6133Z" fill="#00B9BF"/>
<path d="M6.14384 21.9958C6.14384 23.0349 5.27424 23.8774 4.19974 23.8774C3.12522 23.8774 2.25391 23.0349 2.25391 21.9958C2.25391 20.9558 3.12522 20.1133 4.19974 20.1133C5.27424 20.1133 6.14384 20.9558 6.14384 21.9958Z" fill="#00B9BF"/>
<path d="M11.5573 10.2425C11.5573 11.5117 10.494 12.5417 9.18187 12.5417C7.86887 12.5417 6.80469 11.5117 6.80469 10.2425C6.80469 8.97252 7.86887 7.94336 9.18187 7.94336C10.494 7.94336 11.5573 8.97252 11.5573 10.2425Z" fill="#00B9BF"/>
<path d="M11.5573 33.9046C11.5573 35.1738 10.494 36.2038 9.18187 36.2038C7.86887 36.2038 6.80469 35.1738 6.80469 33.9046C6.80469 32.6355 7.86887 31.6055 9.18187 31.6055C10.494 31.6055 11.5573 32.6355 11.5573 33.9046Z" fill="#00B9BF"/>
<path d="M39.1818 16.3555H39.1688C35.96 16.3613 33.3521 18.8963 33.3555 22.0071C33.3623 25.1096 35.9745 27.6355 39.18 27.6355C42.3993 27.6288 45.0158 25.0938 45.0115 21.983C45.0054 18.8796 42.3898 16.3555 39.1818 16.3555Z" fill="#00B9BF"/>
<path d="M132.607 11.1738C128.121 11.1738 121.34 13.3479 121.34 21.8247C121.34 30.3029 128.733 32.4029 132.607 32.4029C136.482 32.4029 143.878 30.3029 143.878 21.8247C143.878 13.3479 137.092 11.1738 132.607 11.1738ZM138.203 21.7879C138.203 27.2863 134.964 28.6479 132.613 28.6479C130.261 28.6479 127.018 27.2863 127.017 21.7879C127.017 16.2897 130.45 14.9279 132.607 14.9279C134.764 14.9279 138.203 16.2897 138.203 21.7879Z" fill="#00B9BF"/>
<path d="M112.463 20.9442L121.194 11.3975H114.851L106.846 20.2324V5.2383C106.846 3.8858 105.99 1.93912 102.59 1.97912C102.217 1.9833 101.807 2.00662 101.381 2.0683V32.1358H106.846V21.6233L115.481 32.1392H121.707L112.463 20.9442Z" fill="#00B9BF"/>
<path d="M158.773 11.1949C155.482 11.1949 153.496 12.3258 152.628 12.9742V12.9658C152.512 13.0399 152.398 13.1142 152.283 13.1917C151.76 12.1841 150.613 11.1758 148.246 11.1758C147.862 11.1758 147.44 11.2033 147.002 11.2641V32.1574H152.628V16.5074C154.121 15.1149 158.272 14.3808 160.162 16.2617C161.229 17.3217 161.441 18.8183 161.441 20.2192V32.1574H167.067V19.1924C167.067 13.8742 162.828 11.1949 158.773 11.1949Z" fill="#00B9BF"/>
<path d="M66.9662 11.1523C61.5695 11.1523 57.7261 13.619 57.7261 13.619L59.4205 16.5649C61.9639 15.214 65.7367 14.5224 68.0468 15.0274C69.7429 15.3982 70.4593 16.519 70.8218 17.5657C71.0102 18.1107 70.9681 19.8349 70.9681 19.8349V19.2782C67.971 18.6249 56.668 17.1999 56.668 25.8582C56.668 29.0832 58.7894 31.6982 63.3733 32.2699C66.1267 32.6124 68.6771 32.059 70.9681 30.5907C71.0826 30.5174 71.1979 30.4432 71.3116 30.3649C71.8342 31.3724 72.981 32.3815 75.3488 32.3815C75.7337 32.3815 76.1547 32.3532 76.5938 32.2915V18.2515C76.5938 12.5207 70.554 11.1523 66.9662 11.1523ZM70.9681 22.4274V27.0482C68.7502 28.3915 66.8534 28.6265 65.7505 28.6265C64.4659 28.6265 62.2334 28.1432 62.099 25.534C61.8632 20.9515 67.9331 21.639 70.9681 22.2732V22.4274Z" fill="#00B9BF"/>
<path d="M87.3066 18.8315C85.1464 18.1224 84.9991 17.2849 85.2024 16.429C85.7879 13.9557 91.8448 14.7865 95.207 16.4307L96.8661 13.464C95.0623 12.3215 91.8527 11.1523 88.3303 11.1523C85.2686 11.1523 82.4713 11.8915 80.9164 14.1557C79.4311 16.3174 79.6507 19.5915 82.1776 21.3532C84.1055 22.6974 87.7 23.6965 90.2366 24.2207C91.7992 24.5432 93.1079 25.1932 92.7084 26.8749C92.2642 28.7432 87.8335 30.1674 81.8437 25.6974L79.7109 28.3732C79.7109 28.3732 83.0284 32.0765 88.5086 32.3799C94.1394 32.6924 98.2963 29.7199 98.0155 25.6365C97.6754 20.6749 92.507 20.5382 87.3066 18.8315Z" fill="#00B9BF"/>
<path d="M180.319 11.1523C174.924 11.1523 171.079 13.619 171.079 13.619L172.774 16.5649C175.317 15.214 179.091 14.5224 181.4 15.0274C183.096 15.3982 183.813 16.519 184.175 17.5657C184.363 18.1107 184.32 19.8349 184.32 19.8349V19.2782C181.324 18.6249 170.021 17.1999 170.021 25.8582C170.021 29.0832 172.142 31.6982 176.726 32.2699C179.48 32.6124 182.03 32.059 184.32 30.5907C184.437 30.5174 184.55 30.4432 184.665 30.3649C185.187 31.3724 186.334 32.3815 188.702 32.3815C189.086 32.3815 189.508 32.3532 189.947 32.2915V18.2515C189.947 12.5207 183.907 11.1523 180.319 11.1523ZM184.32 22.4274V27.0482C182.104 28.3915 180.208 28.6265 179.105 28.6265C177.82 28.6265 175.587 28.1432 175.452 25.534C175.217 20.9515 181.286 21.639 184.32 22.2732V22.4274Z" fill="#00B9BF"/>
<path d="M86.1115 46.4231C85.5062 45.8248 85.2031 45.0981 85.2031 44.2181C85.2031 43.3398 85.5062 42.6131 86.1115 42.0264C86.7175 41.4281 87.4803 41.1348 88.3896 41.1348C89.588 41.1348 90.5938 41.7331 91.0665 42.6714L90.1821 43.1639C89.8791 42.5423 89.2006 42.1323 88.3896 42.1323C87.7835 42.1323 87.2746 42.3314 86.863 42.7298C86.4627 43.1289 86.257 43.6214 86.257 44.2181C86.257 44.8056 86.4627 45.2973 86.863 45.6964C87.2746 46.0948 87.7835 46.2948 88.3896 46.2948C89.2006 46.2948 89.8791 45.8956 90.2184 45.2739L91.1146 45.7789C90.5938 46.7048 89.5639 47.3031 88.3896 47.3031C87.4803 47.3031 86.7175 47.0098 86.1115 46.4231Z" fill="#00B9BF"/>
<path d="M97.6553 41.2891V47.1507H96.6014V42.2616H93.464V47.1507H92.4102V41.2891H97.6553Z" fill="#00B9BF"/>
<path d="M103.895 41.2891H104.743V47.1507H103.701V43.0357L100.345 47.1507H99.498V41.2891H100.54V45.4041L103.895 41.2891Z" fill="#00B9BF"/>
<path d="M111.089 41.2891V42.2741H109.03V47.1507H107.976V42.2741H105.904V41.2891H111.089Z" fill="#00B9BF"/>
<path d="M112.75 44.6892C112.956 45.7325 113.792 46.3425 114.942 46.3425C115.742 46.3425 116.323 46.0608 116.687 45.4858L117.583 45.9792C116.989 46.8583 116.105 47.3042 114.919 47.3042C113.961 47.3042 113.173 47.0108 112.568 46.4367C111.975 45.85 111.672 45.1108 111.672 44.22C111.672 43.3408 111.962 42.6017 112.556 42.0158C113.149 41.4292 113.913 41.1367 114.845 41.1367C115.73 41.1367 116.456 41.4417 117.014 42.0508C117.583 42.6492 117.861 43.3758 117.861 44.2325C117.861 44.3842 117.849 44.5367 117.825 44.6892H112.75ZM112.75 43.7983H116.796C116.614 42.6842 115.815 42.0983 114.845 42.0983C113.718 42.0983 112.931 42.7667 112.75 43.7983Z" fill="#00B9BF"/>
<path d="M120.405 45.9414L119.617 48.7905H118.709L119.194 45.9414H120.405Z" fill="#00B9BF"/>
<path d="M129.223 41.2891H130.277V47.1507H129.223V45.0407C128.739 45.2398 128.193 45.3457 127.588 45.3457C126.037 45.3457 125.152 44.6307 125.152 43.2348V41.2891H126.207V43.1766C126.207 44.0557 126.703 44.3966 127.66 44.3966C128.23 44.3966 128.75 44.2907 129.223 44.0907V41.2891Z" fill="#00B9BF"/>
<path d="M136.623 41.2891V42.2741H134.565V47.1507H133.511V42.2741H131.439V41.2891H136.623Z" fill="#00B9BF"/>
<path d="M140.391 47.3042C139.507 47.3042 138.744 47.0108 138.126 46.4133C137.508 45.815 137.205 45.0883 137.205 44.22C137.205 43.3525 137.508 42.6258 138.126 42.0275C138.744 41.4292 139.507 41.1367 140.391 41.1367C141.275 41.1367 142.039 41.4292 142.657 42.0275C143.275 42.6258 143.589 43.3525 143.589 44.22C143.589 45.0883 143.275 45.815 142.657 46.4133C142.039 47.0108 141.276 47.3042 140.391 47.3042ZM141.918 45.7092C142.331 45.31 142.536 44.8183 142.536 44.22C142.536 43.6225 142.331 43.13 141.918 42.7317C141.506 42.3325 140.998 42.1333 140.392 42.1333C139.798 42.1333 139.289 42.3325 138.877 42.7317C138.466 43.13 138.26 43.6225 138.26 44.22C138.26 44.8183 138.466 45.31 138.877 45.7092C139.289 46.1083 139.798 46.3075 140.392 46.3075C140.998 46.3075 141.506 46.1083 141.918 45.7092Z" fill="#00B9BF"/>
<path d="M145.613 46.4475C145.032 45.8734 144.74 45.1459 144.74 44.2425C144.74 43.2467 144.887 42.4725 145.19 41.9334C145.492 41.3942 146.122 40.9017 147.054 40.4675C147.224 40.3859 147.453 40.2917 147.745 40.1625L148.4 39.8817C148.859 39.6584 149.381 39.2834 149.429 38.7559L150.277 39.225C150.229 39.4709 150.155 39.6825 149.998 39.8817C149.854 40.0692 149.792 40.1859 149.514 40.3617C149.26 40.515 149.223 40.5609 148.872 40.7142C148.703 40.7959 148.58 40.8425 148.521 40.8775L148.12 41.0425L147.733 41.1942C146.631 41.6517 146.207 42.0617 145.977 42.7775C146.497 42.1567 147.333 41.8625 148.108 41.8625C148.872 41.8625 149.514 42.1092 150.035 42.6134C150.568 43.1175 150.834 43.7625 150.834 44.5484C150.834 45.3459 150.556 46.0017 149.986 46.53C149.416 47.0459 148.703 47.3034 147.83 47.3034C146.933 47.3034 146.194 47.0217 145.613 46.4475ZM147.867 42.7659C147.345 42.7659 146.885 42.93 146.461 43.2467C146.049 43.5634 145.843 43.9734 145.843 44.4892C145.843 45.0167 146.036 45.4625 146.413 45.8025C146.788 46.1425 147.26 46.3184 147.83 46.3184C148.4 46.3184 148.859 46.1542 149.223 45.8142C149.598 45.4742 149.78 45.0517 149.78 44.5484C149.78 43.505 149.016 42.7659 147.867 42.7659Z" fill="#00B9BF"/>
<path d="M154.745 43.3998C155.351 43.3998 155.848 43.5748 156.247 43.9266C156.647 44.2673 156.853 44.7241 156.853 45.2757C156.853 45.8266 156.647 46.2832 156.247 46.6348C155.848 46.9757 155.351 47.1516 154.745 47.1516H152.189V41.2891H153.243V43.3998H154.745ZM154.745 46.2016C155.339 46.2016 155.812 45.8382 155.812 45.2757C155.812 44.7132 155.339 44.3382 154.745 44.3382H153.243V46.2016H154.745ZM157.64 41.2891H158.695V47.1507H157.64V41.2891Z" fill="#00B9BF"/>
<path d="M171.269 47.1508H170.034L167.769 44.3724V47.1508H166.727V44.3724L164.462 47.1508H163.238L165.77 44.1258L163.358 41.2891H164.582L166.727 43.8799V41.2891H167.769V43.8799L169.913 41.2891H171.148L168.725 44.1258L171.269 47.1508Z" fill="#00B9BF"/>
<path d="M176.915 41.2891H177.762V47.1507H176.72V43.0357L173.364 47.1507H172.518V41.2891H173.558V45.4041L176.915 41.2891Z" fill="#00B9BF"/>
<path d="M184.109 41.2891V42.2741H182.05V47.1507H180.995V42.2741H178.924V41.2891H184.109Z" fill="#00B9BF"/>
<path d="M187.828 43.3998C188.434 43.3998 188.93 43.5757 189.33 43.9273C189.729 44.2673 189.935 44.7248 189.935 45.2757C189.935 45.8266 189.729 46.2841 189.33 46.6357C188.93 46.9757 188.434 47.1516 187.828 47.1516H185.271V41.2891H186.325V43.3998H187.828ZM187.828 46.2016C188.421 46.2016 188.894 45.8382 188.894 45.2757C188.894 44.7132 188.421 44.3382 187.828 44.3382H186.325V46.2016H187.828Z" fill="#00B9BF"/>
</svg>
