<svg width="126" height="70" viewBox="0 0 126 70" fill="none" xmlns="http://www.w3.org/2000/svg">
<path d="M0 35C0 25.1573 7.18581 16.3226 18.8044 9.995C30.1441 3.8197 45.7711 0 62.9996 0C80.2275 0 95.8559 3.8197 107.196 9.995C118.813 16.3226 126 25.1573 126 35C126 44.8434 118.814 53.6774 107.196 60.0057C95.8566 66.1817 80.2282 70 62.9996 70C45.7711 70 30.1441 66.181 18.8044 60.0057C7.18581 53.6774 0 44.8427 0 35Z" fill="#EC1B23"/>
<path d="M20.2621 12.6621C9.63285 18.4506 3.05859 26.3538 3.05859 34.9991C3.05859 43.6443 9.63285 51.5468 20.2621 57.3361C31.1695 63.2762 46.2767 66.9493 62.9998 66.9493C79.7237 66.9493 94.8294 63.2754 105.738 57.3361C116.367 51.5468 122.941 43.6443 122.941 34.9991C122.941 26.3538 116.367 18.4513 105.738 12.6621C94.8294 6.72198 79.7237 3.04883 62.9998 3.04883C46.2767 3.04883 31.1695 6.72269 20.2621 12.6621Z" fill="white"/>
<path fill-rule="evenodd" clip-rule="evenodd" d="M13.5 44.7601H18.3823V35.0618H27.9921V44.7601H32.883V22.3223H27.9921V31.4136H18.3823V22.3223H13.5V44.7601ZM54.1135 44.7601H58.4581V35.9876C58.4581 32.6897 60.8526 32.1843 62.1316 32.1843C64.433 32.1843 65.1585 33.7006 65.1585 34.8523V44.7601H69.3468V33.5919C69.3468 30.4035 66.3128 29.1353 63.4027 29.1353C61.6169 29.1353 59.2997 30.4264 58.4652 32.1843L58.4573 29.6485H54.1127L54.1135 44.7601ZM73.1136 22.3373V44.7758L77.4983 44.7601L77.4589 36.2356L84.1041 44.8623H89.4704L82.567 35.9876L88.448 29.6485H83.4883L77.5048 36.2356L77.4983 22.3223L73.1136 22.3373ZM107.832 22.3223V44.7601H112.394V22.3223H107.832ZM50.822 38.0179C51.3368 33.1952 48.7866 28.7156 42.9057 28.8321C40.3476 28.8865 34.9814 29.6493 35.2854 38.2037C35.3635 40.3048 36.4633 45.3835 43.1559 45.5465C48.8497 45.6794 50.5654 42.3266 50.6363 40.0546L46.7362 40.0475C46.7362 40.8017 45.5583 42.832 43.4606 42.8863C39.4199 42.98 39.5683 38.9043 39.6623 38.0172L50.822 38.0179ZM39.6608 35.4428C39.63 33.8715 40.4953 31.5538 43.1552 31.6781C45.7605 31.7947 46.3297 34.1746 46.3297 35.4428H39.6608ZM105.842 38.0179C106.358 33.1952 103.806 28.7156 97.9251 28.8321C95.3671 28.8865 90.0009 29.6493 90.3135 38.2037C90.3837 40.3048 91.7251 45.7173 98.1832 45.5465C104.243 45.3827 105.593 42.3266 105.655 40.0546L101.756 40.0475C101.756 40.8017 100.578 42.832 98.4808 42.8863C94.4394 42.98 94.5878 38.9043 94.6817 38.0172L105.842 38.0179ZM94.6803 35.4428C94.6495 33.8715 95.5148 31.5538 98.1825 31.6781C100.789 31.7947 101.35 34.1746 101.35 35.4428H94.6803Z" fill="#EC1B23"/>
</svg>
