<svg width="32" height="32" viewBox="0 0 32 32" fill="none" xmlns="http://www.w3.org/2000/svg">
<g clip-path="url(#clip0_831_2374)">
<path d="M28.8207 3.80519L16.2688 0.0395635C16.0931 -0.0131878 15.9057 -0.0131878 15.73 0.0395635L3.17783 3.80519C2.98473 3.86313 2.81545 3.98178 2.6951 4.14353C2.57476 4.30528 2.50977 4.50152 2.50977 4.70313V18.5104C2.50977 20.3063 3.23683 22.1446 4.67064 23.9744C5.7657 25.3719 7.28077 26.7753 9.17358 28.1454C12.3534 30.4472 15.4846 31.8592 15.6163 31.9181C15.7368 31.9721 15.8674 32 15.9994 32C16.1314 32 16.262 31.9721 16.3825 31.9181C16.5141 31.8592 19.6453 30.4472 22.8251 28.1454C24.7179 26.7753 26.2329 25.3719 27.328 23.9744C28.7618 22.1447 29.4888 20.3063 29.4888 18.5104V4.70313C29.4888 4.50151 29.4238 4.30526 29.3035 4.1435C29.1831 3.98175 29.0138 3.8631 28.8207 3.80519Z" fill="white"/>
<path d="M11 21.3V19.3H12.375V17.8H11V15.7H12.375V9H17.05C18.6022 9 19.8122 9.41333 20.68 10.24C21.56 11.0667 22 12.12 22 13.4C22 14.68 21.56 15.7333 20.68 16.56C19.8122 17.3867 18.6022 17.8 17.05 17.8H14.4833V19.3H18.8833V21.3H14.4833V23H12.375V21.3H11ZM14.4833 15.7H17.05C18.8833 15.7 19.8 14.9333 19.8 13.4C19.8 11.8667 18.8833 11.1 17.05 11.1H14.4833V15.7Z" fill="#C83A36"/>
</g>
<defs>
<clipPath id="clip0_831_2374">
<rect width="32" height="32" fill="white"/>
</clipPath>
</defs>
</svg>
