<svg width="32" height="32" viewBox="0 0 32 32" fill="none" xmlns="http://www.w3.org/2000/svg">
<path d="M17.7584 19.4563C22.5868 19.4563 26.4865 15.5484 26.4865 10.7281C26.4865 5.91541 22.5711 2 17.7584 2H8.97188C8.51884 2 8.15156 2.36728 8.15156 2.82031V14.301H6.33594C5.88291 14.301 5.51562 14.6683 5.51562 15.1213V18.6359C5.51562 19.089 5.88291 19.4563 6.33594 19.4563H8.15156V21.3302H6.33594C5.88291 21.3302 5.51562 21.6975 5.51562 22.1505V25.6651C5.51562 26.1182 5.88291 26.4855 6.33594 26.4855H8.15156V29.1797C8.15156 29.6327 8.51884 30 8.97188 30H12.4865C12.9395 30 13.3068 29.6327 13.3068 29.1797V26.4854H18.637C19.09 26.4854 19.4573 26.1181 19.4573 25.6651V22.1505C19.4573 21.6975 19.09 21.3302 18.637 21.3302H13.3067V19.4563H17.7584ZM13.3067 7.15523H17.7583C19.7284 7.15523 21.3312 8.75806 21.3312 10.7281C21.3312 12.6982 19.7284 14.301 17.7583 14.301H13.3067V7.15523Z" fill="white"/>
</svg>
