<svg width="32" height="32" viewBox="0 0 32 32" fill="none" xmlns="http://www.w3.org/2000/svg">
<path d="M19.9992 7.19922C19.9992 8.26008 19.5778 9.2775 18.8276 10.0276C18.0775 10.7778 17.0601 11.1992 15.9992 11.1992C14.9384 11.1992 13.9209 10.7778 13.1708 10.0276C12.4206 9.2775 11.9992 8.26008 11.9992 7.19922C11.9992 6.13835 12.4206 5.12094 13.1708 4.37079C13.9209 3.62065 14.9384 3.19922 15.9992 3.19922C17.0601 3.19922 18.0775 3.62065 18.8276 4.37079C19.5778 5.12094 19.9992 6.13835 19.9992 7.19922ZM27.9992 7.99922C27.9992 8.84791 27.6621 9.66184 27.062 10.262C26.4618 10.8621 25.6479 11.1992 24.7992 11.1992C23.9505 11.1992 23.1366 10.8621 22.5365 10.262C21.9364 9.66184 21.5992 8.84791 21.5992 7.99922C21.5992 7.15053 21.9364 6.33659 22.5365 5.73648C23.1366 5.13636 23.9505 4.79922 24.7992 4.79922C25.6479 4.79922 26.4618 5.13636 27.062 5.73648C27.6621 6.33659 27.9992 7.15053 27.9992 7.99922ZM7.19922 11.1992C8.04791 11.1992 8.86184 10.8621 9.46196 10.262C10.0621 9.66184 10.3992 8.84791 10.3992 7.99922C10.3992 7.15053 10.0621 6.33659 9.46196 5.73648C8.86184 5.13636 8.04791 4.79922 7.19922 4.79922C6.35053 4.79922 5.53659 5.13636 4.93648 5.73648C4.33636 6.33659 3.99922 7.15053 3.99922 7.99922C3.99922 8.84791 4.33636 9.66184 4.93648 10.262C5.53659 10.8621 6.35053 11.1992 7.19922 11.1992ZM9.59922 14.7992C9.59922 13.6952 10.4952 12.7992 11.5992 12.7992H20.3992C21.5032 12.7992 22.3992 13.6952 22.3992 14.7992V22.3992C22.3992 24.0966 21.7249 25.7245 20.5247 26.9247C19.3245 28.1249 17.6966 28.7992 15.9992 28.7992C14.3018 28.7992 12.674 28.1249 11.4737 26.9247C10.2735 25.7245 9.59922 24.0966 9.59922 22.3992V14.7992ZM7.99922 14.7992C7.99922 14.0584 8.22322 13.372 8.60562 12.7992H5.19922C4.09522 12.7992 3.19922 13.6952 3.19922 14.7992V20.7992C3.19914 21.4842 3.34568 22.1613 3.62898 22.7849C3.91228 23.4086 4.32579 23.9644 4.84171 24.415C5.35763 24.8656 5.96402 25.2006 6.62012 25.3974C7.27623 25.5942 7.96687 25.6483 8.64562 25.556C8.21827 24.5585 7.99834 23.4844 7.99922 22.3992V14.7992ZM23.9992 22.3992C23.9992 23.5192 23.7688 24.588 23.3528 25.556C23.564 25.5848 23.7795 25.5992 23.9992 25.5992C25.2723 25.5992 26.4932 25.0935 27.3933 24.1933C28.2935 23.2932 28.7992 22.0723 28.7992 20.7992V14.7992C28.7992 13.6952 27.9032 12.7992 26.7992 12.7992H23.3928C23.7768 13.372 23.9992 14.0584 23.9992 14.7992V22.3992Z" fill="white"/>
</svg>
